solid 
 facet normal -9.991393e-01  4.147964e-02  0.000000e+00
   outer loop
     vertex -1.254150e+01  1.880422e+02 -1.236000e+02
     vertex -1.254996e+01  1.878385e+02 -1.171838e+02
     vertex -1.254150e+01  1.880422e+02 -1.171949e+02
   endloop
 endfacet
 facet normal -9.689164e-01  2.473850e-01 -1.312768e-03
   outer loop
     vertex -1.261294e+01  1.874539e+02 -1.236000e+02
     vertex -1.267757e+01  1.872357e+02 -1.170169e+02
     vertex -1.257552e+01  1.876347e+02 -1.171504e+02
   endloop
 endfacet
 facet normal -9.921786e-01  1.248063e-01  2.258236e-03
   outer loop
     vertex -1.261294e+01  1.874539e+02 -1.236000e+02
     vertex -1.257552e+01  1.876347e+02 -1.171504e+02
     vertex -1.254996e+01  1.878385e+02 -1.171838e+02
   endloop
 endfacet
 facet normal -9.927057e-01  1.205363e-01  2.519351e-03
   outer loop
     vertex -1.261294e+01  1.874539e+02 -1.236000e+02
     vertex -1.254996e+01  1.878385e+02 -1.171838e+02
     vertex -1.254150e+01  1.880422e+02 -1.236000e+02
   endloop
 endfacet
 facet normal -9.141914e-01  4.052825e-01 -4.724208e-04
   outer loop
     vertex -1.282311e+01  1.868997e+02 -1.236000e+02
     vertex -1.284342e+01  1.868618e+02 -1.168000e+02
     vertex -1.267757e+01  1.872357e+02 -1.170169e+02
   endloop
 endfacet
 facet normal -9.350131e-01  3.546037e-01  2.574149e-03
   outer loop
     vertex -1.282311e+01  1.868997e+02 -1.236000e+02
     vertex -1.267757e+01  1.872357e+02 -1.170169e+02
     vertex -1.261294e+01  1.874539e+02 -1.236000e+02
   endloop
 endfacet
 facet normal -8.140530e-01  5.807904e-01 -5.501099e-04
   outer loop
     vertex -1.315979e+01  1.864120e+02 -1.236000e+02
     vertex -1.318213e+01  1.863871e+02 -1.168000e+02
     vertex -1.284342e+01  1.868618e+02 -1.168000e+02
   endloop
 endfacet
 facet normal -8.229837e-01  5.680646e-01  7.072805e-04
   outer loop
     vertex -1.315979e+01  1.864120e+02 -1.236000e+02
     vertex -1.284342e+01  1.868618e+02 -1.168000e+02
     vertex -1.282311e+01  1.868997e+02 -1.236000e+02
   endloop
 endfacet
 facet normal -6.543499e-01  7.561918e-01 -3.997207e-04
   outer loop
     vertex -1.360341e+01  1.860189e+02 -1.236000e+02
     vertex -1.362314e+01  1.860055e+02 -1.168000e+02
     vertex -1.318213e+01  1.863871e+02 -1.168000e+02
   endloop
 endfacet
 facet normal -6.631226e-01  7.485106e-01  5.596068e-04
   outer loop
     vertex -1.360341e+01  1.860189e+02 -1.236000e+02
     vertex -1.318213e+01  1.863871e+02 -1.168000e+02
     vertex -1.315979e+01  1.864120e+02 -1.236000e+02
   endloop
 endfacet
 facet normal -4.578261e-01  8.890417e-01 -2.439022e-04
   outer loop
     vertex -1.412820e+01  1.857435e+02 -1.236000e+02
     vertex -1.414162e+01  1.857385e+02 -1.168000e+02
     vertex -1.362314e+01  1.860055e+02 -1.168000e+02
   endloop
 endfacet
 facet normal -4.647231e-01  8.854560e-01  4.065027e-04
   outer loop
     vertex -1.412820e+01  1.857435e+02 -1.236000e+02
     vertex -1.362314e+01  1.860055e+02 -1.168000e+02
     vertex -1.360341e+01  1.860189e+02 -1.236000e+02
   endloop
 endfacet
 facet normal -2.355401e-01  9.718646e-01 -8.265696e-05
   outer loop
     vertex -1.470366e+01  1.856017e+02 -1.236000e+02
     vertex -1.470840e+01  1.856011e+02 -1.168000e+02
     vertex -1.414162e+01  1.857385e+02 -1.168000e+02
   endloop
 endfacet
 facet normal -2.393157e-01  9.709418e-01  2.479706e-04
   outer loop
     vertex -1.470366e+01  1.856017e+02 -1.236000e+02
     vertex -1.414162e+01  1.857385e+02 -1.168000e+02
     vertex -1.412820e+01  1.857435e+02 -1.236000e+02
   endloop
 endfacet
 facet normal  0.000000e+00  1.000000e+00  8.401275e-05
   outer loop
     vertex -1.529634e+01  1.856017e+02 -1.236000e+02
     vertex -1.529160e+01  1.856011e+02 -1.168000e+02
     vertex -1.470840e+01  1.856011e+02 -1.168000e+02
   endloop
 endfacet
 facet normal  2.355401e-01  9.718646e-01 -8.265696e-05
   outer loop
     vertex -1.529634e+01  1.856017e+02 -1.236000e+02
     vertex -1.585838e+01  1.857385e+02 -1.168000e+02
     vertex -1.529160e+01  1.856011e+02 -1.168000e+02
   endloop
 endfacet
 facet normal -0.000000e+00  1.000000e+00  8.401275e-05
   outer loop
     vertex -1.529634e+01  1.856017e+02 -1.236000e+02
     vertex -1.470840e+01  1.856011e+02 -1.168000e+02
     vertex -1.470366e+01  1.856017e+02 -1.236000e+02
   endloop
 endfacet
 facet normal  4.578261e-01  8.890417e-01 -2.439022e-04
   outer loop
     vertex -1.587180e+01  1.857435e+02 -1.236000e+02
     vertex -1.637686e+01  1.860055e+02 -1.168000e+02
     vertex -1.585838e+01  1.857385e+02 -1.168000e+02
   endloop
 endfacet
 facet normal  2.393157e-01  9.709418e-01  2.479706e-04
   outer loop
     vertex -1.587180e+01  1.857435e+02 -1.236000e+02
     vertex -1.585838e+01  1.857385e+02 -1.168000e+02
     vertex -1.529634e+01  1.856017e+02 -1.236000e+02
   endloop
 endfacet
 facet normal  6.543499e-01  7.561918e-01 -3.997207e-04
   outer loop
     vertex -1.639659e+01  1.860189e+02 -1.236000e+02
     vertex -1.681787e+01  1.863871e+02 -1.168000e+02
     vertex -1.637686e+01  1.860055e+02 -1.168000e+02
   endloop
 endfacet
 facet normal  4.647231e-01  8.854560e-01  4.065027e-04
   outer loop
     vertex -1.639659e+01  1.860189e+02 -1.236000e+02
     vertex -1.637686e+01  1.860055e+02 -1.168000e+02
     vertex -1.587180e+01  1.857435e+02 -1.236000e+02
   endloop
 endfacet
 facet normal  8.140530e-01  5.807904e-01 -5.501099e-04
   outer loop
     vertex -1.684021e+01  1.864120e+02 -1.236000e+02
     vertex -1.715658e+01  1.868618e+02 -1.168000e+02
     vertex -1.681787e+01  1.863871e+02 -1.168000e+02
   endloop
 endfacet
 facet normal  6.631226e-01  7.485106e-01  5.596068e-04
   outer loop
     vertex -1.684021e+01  1.864120e+02 -1.236000e+02
     vertex -1.681787e+01  1.863871e+02 -1.168000e+02
     vertex -1.639659e+01  1.860189e+02 -1.236000e+02
   endloop
 endfacet
 facet normal  9.386218e-01  3.449371e-01  2.727208e-03
   outer loop
     vertex -1.717689e+01  1.868997e+02 -1.236000e+02
     vertex -1.734816e+01  1.873140e+02 -1.170506e+02
     vertex -1.726332e+01  1.870823e+02 -1.169396e+02
   endloop
 endfacet
 facet normal  9.000838e-01  4.357167e-01 -2.606584e-04
   outer loop
     vertex -1.717689e+01  1.868997e+02 -1.236000e+02
     vertex -1.726332e+01  1.870823e+02 -1.169396e+02
     vertex -1.715658e+01  1.868618e+02 -1.168000e+02
   endloop
 endfacet
 facet normal  8.229837e-01  5.680646e-01  7.072805e-04
   outer loop
     vertex -1.717689e+01  1.868997e+02 -1.236000e+02
     vertex -1.715658e+01  1.868618e+02 -1.168000e+02
     vertex -1.684021e+01  1.864120e+02 -1.236000e+02
   endloop
 endfacet
 facet normal  9.747999e-01  2.230786e-01 -1.024698e-03
   outer loop
     vertex -1.738706e+01  1.874539e+02 -1.236000e+02
     vertex -1.743097e+01  1.876753e+02 -1.171589e+02
     vertex -1.734816e+01  1.873140e+02 -1.170506e+02
   endloop
 endfacet
 facet normal  9.350143e-01  3.546042e-01  2.021440e-03
   outer loop
     vertex -1.738706e+01  1.874539e+02 -1.236000e+02
     vertex -1.734816e+01  1.873140e+02 -1.170506e+02
     vertex -1.717689e+01  1.868997e+02 -1.236000e+02
   endloop
 endfacet
 facet normal  9.971962e-01  7.483095e-02 -0.000000e+00
   outer loop
     vertex -1.745850e+01  1.880422e+02 -1.236000e+02
     vertex -1.745850e+01  1.880422e+02 -1.171949e+02
     vertex -1.743097e+01  1.876753e+02 -1.171589e+02
   endloop
 endfacet
 facet normal  9.927055e-01  1.205363e-01  2.622757e-03
   outer loop
     vertex -1.745850e+01  1.880422e+02 -1.236000e+02
     vertex -1.743097e+01  1.876753e+02 -1.171589e+02
     vertex -1.738706e+01  1.874539e+02 -1.236000e+02
   endloop
 endfacet
 facet normal -0.000000e+00  0.000000e+00  1.000000e+00
   outer loop
     vertex -1.362314e+01  1.860055e+02 -1.168000e+02
     vertex -1.284342e+01  1.775422e+02 -1.168000e+02
     vertex -1.318213e+01  1.863871e+02 -1.168000e+02
   endloop
 endfacet
 facet normal  0.000000e+00  0.000000e+00  1.000000e+00
   outer loop
     vertex -1.284342e+01  1.868618e+02 -1.168000e+02
     vertex -1.318213e+01  1.863871e+02 -1.168000e+02
     vertex -1.284342e+01  1.775422e+02 -1.168000e+02
   endloop
 endfacet
 facet normal -0.000000e+00  0.000000e+00  1.000000e+00
   outer loop
     vertex -1.414162e+01  1.857385e+02 -1.168000e+02
     vertex -1.284342e+01  1.775422e+02 -1.168000e+02
     vertex -1.362314e+01  1.860055e+02 -1.168000e+02
   endloop
 endfacet
 facet normal  0.000000e+00  0.000000e+00  1.000000e+00
   outer loop
     vertex -1.470840e+01  1.856011e+02 -1.168000e+02
     vertex -1.715658e+01  1.775422e+02 -1.168000e+02
     vertex -1.284342e+01  1.775422e+02 -1.168000e+02
   endloop
 endfacet
 facet normal -0.000000e+00  0.000000e+00  1.000000e+00
   outer loop
     vertex -1.470840e+01  1.856011e+02 -1.168000e+02
     vertex -1.284342e+01  1.775422e+02 -1.168000e+02
     vertex -1.414162e+01  1.857385e+02 -1.168000e+02
   endloop
 endfacet
 facet normal -0.000000e+00  0.000000e+00  1.000000e+00
   outer loop
     vertex -1.529160e+01  1.856011e+02 -1.168000e+02
     vertex -1.715658e+01  1.775422e+02 -1.168000e+02
     vertex -1.470840e+01  1.856011e+02 -1.168000e+02
   endloop
 endfacet
 facet normal  0.000000e+00  0.000000e+00  1.000000e+00
   outer loop
     vertex -1.585838e+01  1.857385e+02 -1.168000e+02
     vertex -1.715658e+01  1.775422e+02 -1.168000e+02
     vertex -1.529160e+01  1.856011e+02 -1.168000e+02
   endloop
 endfacet
 facet normal  0.000000e+00  0.000000e+00  1.000000e+00
   outer loop
     vertex -1.637686e+01  1.860055e+02 -1.168000e+02
     vertex -1.715658e+01  1.775422e+02 -1.168000e+02
     vertex -1.585838e+01  1.857385e+02 -1.168000e+02
   endloop
 endfacet
 facet normal  0.000000e+00  0.000000e+00  1.000000e+00
   outer loop
     vertex -1.681787e+01  1.863871e+02 -1.168000e+02
     vertex -1.715658e+01  1.775422e+02 -1.168000e+02
     vertex -1.637686e+01  1.860055e+02 -1.168000e+02
   endloop
 endfacet
 facet normal  0.000000e+00  0.000000e+00  1.000000e+00
   outer loop
     vertex -1.715658e+01  1.868618e+02 -1.168000e+02
     vertex -1.715658e+01  1.775422e+02 -1.168000e+02
     vertex -1.681787e+01  1.863871e+02 -1.168000e+02
   endloop
 endfacet
 facet normal  0.000000e+00  0.000000e+00  1.000000e+00
   outer loop
     vertex -1.284342e+01  1.945422e+02 -1.168000e+02
     vertex -1.529160e+01  1.904834e+02 -1.168000e+02
     vertex -1.470840e+01  1.904834e+02 -1.168000e+02
   endloop
 endfacet
 facet normal  0.000000e+00  0.000000e+00  1.000000e+00
   outer loop
     vertex -1.284342e+01  1.945422e+02 -1.168000e+02
     vertex -1.470840e+01  1.904834e+02 -1.168000e+02
     vertex -1.414162e+01  1.903460e+02 -1.168000e+02
   endloop
 endfacet
 facet normal  0.000000e+00  0.000000e+00  1.000000e+00
   outer loop
     vertex -1.284342e+01  1.945422e+02 -1.168000e+02
     vertex -1.414162e+01  1.903460e+02 -1.168000e+02
     vertex -1.362314e+01  1.900790e+02 -1.168000e+02
   endloop
 endfacet
 facet normal  0.000000e+00  0.000000e+00  1.000000e+00
   outer loop
     vertex -1.284342e+01  1.945422e+02 -1.168000e+02
     vertex -1.362314e+01  1.900790e+02 -1.168000e+02
     vertex -1.318213e+01  1.896974e+02 -1.168000e+02
   endloop
 endfacet
 facet normal  0.000000e+00  0.000000e+00  1.000000e+00
   outer loop
     vertex -1.284342e+01  1.945422e+02 -1.168000e+02
     vertex -1.318213e+01  1.896974e+02 -1.168000e+02
     vertex -1.284342e+01  1.892227e+02 -1.168000e+02
   endloop
 endfacet
 facet normal  0.000000e+00  0.000000e+00  1.000000e+00
   outer loop
     vertex -1.715658e+01  1.945422e+02 -1.168000e+02
     vertex -1.681787e+01  1.896974e+02 -1.168000e+02
     vertex -1.637686e+01  1.900790e+02 -1.168000e+02
   endloop
 endfacet
 facet normal  0.000000e+00  0.000000e+00  1.000000e+00
   outer loop
     vertex -1.715658e+01  1.945422e+02 -1.168000e+02
     vertex -1.637686e+01  1.900790e+02 -1.168000e+02
     vertex -1.585838e+01  1.903460e+02 -1.168000e+02
   endloop
 endfacet
 facet normal  0.000000e+00  0.000000e+00  1.000000e+00
   outer loop
     vertex -1.715658e+01  1.945422e+02 -1.168000e+02
     vertex -1.585838e+01  1.903460e+02 -1.168000e+02
     vertex -1.529160e+01  1.904834e+02 -1.168000e+02
   endloop
 endfacet
 facet normal -0.000000e+00  0.000000e+00  1.000000e+00
   outer loop
     vertex -1.715658e+01  1.945422e+02 -1.168000e+02
     vertex -1.529160e+01  1.904834e+02 -1.168000e+02
     vertex -1.284342e+01  1.945422e+02 -1.168000e+02
   endloop
 endfacet
 facet normal  0.000000e+00  0.000000e+00  1.000000e+00
   outer loop
     vertex -1.715658e+01  1.945422e+02 -1.168000e+02
     vertex -1.715658e+01  1.892227e+02 -1.168000e+02
     vertex -1.681787e+01  1.896974e+02 -1.168000e+02
   endloop
 endfacet
 facet normal -7.944146e-01  0.000000e+00  6.073758e-01
   outer loop
     vertex -1.715658e+01  1.868618e+02 -1.168000e+02
     vertex -2.075000e+01  1.775422e+02 -1.215000e+02
     vertex -1.715658e+01  1.775422e+02 -1.168000e+02
   endloop
 endfacet
 facet normal -7.944146e-01  2.698227e-15  6.073758e-01
   outer loop
     vertex -1.726332e+01  1.870823e+02 -1.169396e+02
     vertex -2.075000e+01  1.775422e+02 -1.215000e+02
     vertex -1.715658e+01  1.868618e+02 -1.168000e+02
   endloop
 endfacet
 facet normal -7.944146e-01  2.272401e-15  6.073758e-01
   outer loop
     vertex -1.734816e+01  1.873140e+02 -1.170506e+02
     vertex -2.075000e+01  1.775422e+02 -1.215000e+02
     vertex -1.726332e+01  1.870823e+02 -1.169396e+02
   endloop
 endfacet
 facet normal -7.944146e-01 -7.376717e-15  6.073758e-01
   outer loop
     vertex -1.743097e+01  1.876753e+02 -1.171589e+02
     vertex -2.075000e+01  1.775422e+02 -1.215000e+02
     vertex -1.734816e+01  1.873140e+02 -1.170506e+02
   endloop
 endfacet
 facet normal -7.944146e-01 -1.107342e-15  6.073758e-01
   outer loop
     vertex -2.075000e+01  1.945422e+02 -1.215000e+02
     vertex -1.742448e+01  1.884498e+02 -1.171504e+02
     vertex -1.732243e+01  1.888488e+02 -1.170169e+02
   endloop
 endfacet
 facet normal -7.944146e-01  0.000000e+00  6.073758e-01
   outer loop
     vertex -2.075000e+01  1.945422e+02 -1.215000e+02
     vertex -1.745004e+01  1.882460e+02 -1.171838e+02
     vertex -1.742448e+01  1.884498e+02 -1.171504e+02
   endloop
 endfacet
 facet normal -7.944146e-01  2.973321e-14  6.073758e-01
   outer loop
     vertex -2.075000e+01  1.945422e+02 -1.215000e+02
     vertex -1.745850e+01  1.880422e+02 -1.171949e+02
     vertex -1.745004e+01  1.882460e+02 -1.171838e+02
   endloop
 endfacet
 facet normal -7.944146e-01 -6.292750e-15  6.073758e-01
   outer loop
     vertex -2.075000e+01  1.945422e+02 -1.215000e+02
     vertex -1.743097e+01  1.876753e+02 -1.171589e+02
     vertex -1.745850e+01  1.880422e+02 -1.171949e+02
   endloop
 endfacet
 facet normal -7.944146e-01  0.000000e+00  6.073758e-01
   outer loop
     vertex -2.075000e+01  1.945422e+02 -1.215000e+02
     vertex -2.075000e+01  1.775422e+02 -1.215000e+02
     vertex -1.743097e+01  1.876753e+02 -1.171589e+02
   endloop
 endfacet
 facet normal -7.944146e-01 -3.272180e-15  6.073758e-01
   outer loop
     vertex -1.715658e+01  1.892227e+02 -1.168000e+02
     vertex -2.075000e+01  1.945422e+02 -1.215000e+02
     vertex -1.732243e+01  1.888488e+02 -1.170169e+02
   endloop
 endfacet
 facet normal -7.944146e-01  0.000000e+00  6.073758e-01
   outer loop
     vertex -1.715658e+01  1.945422e+02 -1.168000e+02
     vertex -2.075000e+01  1.945422e+02 -1.215000e+02
     vertex -1.715658e+01  1.892227e+02 -1.168000e+02
   endloop
 endfacet
 facet normal -1.000000e+00  0.000000e+00  0.000000e+00
   outer loop
     vertex -2.075000e+01  1.945422e+02 -1.230000e+02
     vertex -2.075000e+01  1.775422e+02 -1.230000e+02
     vertex -2.075000e+01  1.775422e+02 -1.215000e+02
   endloop
 endfacet
 facet normal -1.000000e+00  0.000000e+00  0.000000e+00
   outer loop
     vertex -2.075000e+01  1.945422e+02 -1.230000e+02
     vertex -2.075000e+01  1.775422e+02 -1.215000e+02
     vertex -2.075000e+01  1.945422e+02 -1.215000e+02
   endloop
 endfacet
 facet normal  0.000000e+00  0.000000e+00 -1.000000e+00
   outer loop
     vertex -1.890000e+01  1.775422e+02 -1.230000e+02
     vertex -2.075000e+01  1.945422e+02 -1.230000e+02
     vertex -1.890000e+01  1.945422e+02 -1.230000e+02
   endloop
 endfacet
 facet normal  0.000000e+00  0.000000e+00 -1.000000e+00
   outer loop
     vertex -2.075000e+01  1.775422e+02 -1.230000e+02
     vertex -2.075000e+01  1.945422e+02 -1.230000e+02
     vertex -1.890000e+01  1.775422e+02 -1.230000e+02
   endloop
 endfacet
 facet normal -1.000000e+00  0.000000e+00  0.000000e+00
   outer loop
     vertex -1.890000e+01  1.945422e+02 -1.236000e+02
     vertex -1.890000e+01  1.775422e+02 -1.236000e+02
     vertex -1.890000e+01  1.775422e+02 -1.230000e+02
   endloop
 endfacet
 facet normal -1.000000e+00  0.000000e+00  0.000000e+00
   outer loop
     vertex -1.890000e+01  1.945422e+02 -1.236000e+02
     vertex -1.890000e+01  1.775422e+02 -1.230000e+02
     vertex -1.890000e+01  1.945422e+02 -1.230000e+02
   endloop
 endfacet
 facet normal  0.000000e+00  0.000000e+00 -1.000000e+00
   outer loop
     vertex -1.360341e+01  1.860189e+02 -1.236000e+02
     vertex -1.315979e+01  1.864120e+02 -1.236000e+02
     vertex -1.110000e+01  1.775422e+02 -1.236000e+02
   endloop
 endfacet
 facet normal  0.000000e+00 -0.000000e+00 -1.000000e+00
   outer loop
     vertex -1.282311e+01  1.868997e+02 -1.236000e+02
     vertex -1.110000e+01  1.775422e+02 -1.236000e+02
     vertex -1.315979e+01  1.864120e+02 -1.236000e+02
   endloop
 endfacet
 facet normal  0.000000e+00  0.000000e+00 -1.000000e+00
   outer loop
     vertex -1.412820e+01  1.857435e+02 -1.236000e+02
     vertex -1.360341e+01  1.860189e+02 -1.236000e+02
     vertex -1.110000e+01  1.775422e+02 -1.236000e+02
   endloop
 endfacet
 facet normal  0.000000e+00 -0.000000e+00 -1.000000e+00
   outer loop
     vertex -1.261294e+01  1.874539e+02 -1.236000e+02
     vertex -1.110000e+01  1.775422e+02 -1.236000e+02
     vertex -1.282311e+01  1.868997e+02 -1.236000e+02
   endloop
 endfacet
 facet normal  0.000000e+00  0.000000e+00 -1.000000e+00
   outer loop
     vertex -1.470366e+01  1.856017e+02 -1.236000e+02
     vertex -1.412820e+01  1.857435e+02 -1.236000e+02
     vertex -1.110000e+01  1.775422e+02 -1.236000e+02
   endloop
 endfacet
 facet normal  0.000000e+00 -0.000000e+00 -1.000000e+00
   outer loop
     vertex -1.529634e+01  1.856017e+02 -1.236000e+02
     vertex -1.110000e+01  1.775422e+02 -1.236000e+02
     vertex -1.890000e+01  1.775422e+02 -1.236000e+02
   endloop
 endfacet
 facet normal  0.000000e+00  0.000000e+00 -1.000000e+00
   outer loop
     vertex -1.529634e+01  1.856017e+02 -1.236000e+02
     vertex -1.470366e+01  1.856017e+02 -1.236000e+02
     vertex -1.110000e+01  1.775422e+02 -1.236000e+02
   endloop
 endfacet
 facet normal  0.000000e+00 -0.000000e+00 -1.000000e+00
   outer loop
     vertex -1.587180e+01  1.857435e+02 -1.236000e+02
     vertex -1.529634e+01  1.856017e+02 -1.236000e+02
     vertex -1.890000e+01  1.775422e+02 -1.236000e+02
   endloop
 endfacet
 facet normal  0.000000e+00 -0.000000e+00 -1.000000e+00
   outer loop
     vertex -1.639659e+01  1.860189e+02 -1.236000e+02
     vertex -1.587180e+01  1.857435e+02 -1.236000e+02
     vertex -1.890000e+01  1.775422e+02 -1.236000e+02
   endloop
 endfacet
 facet normal  0.000000e+00 -0.000000e+00 -1.000000e+00
   outer loop
     vertex -1.684021e+01  1.864120e+02 -1.236000e+02
     vertex -1.639659e+01  1.860189e+02 -1.236000e+02
     vertex -1.890000e+01  1.775422e+02 -1.236000e+02
   endloop
 endfacet
 facet normal  0.000000e+00 -0.000000e+00 -1.000000e+00
   outer loop
     vertex -1.717689e+01  1.868997e+02 -1.236000e+02
     vertex -1.684021e+01  1.864120e+02 -1.236000e+02
     vertex -1.890000e+01  1.775422e+02 -1.236000e+02
   endloop
 endfacet
 facet normal  0.000000e+00 -0.000000e+00 -1.000000e+00
   outer loop
     vertex -1.738706e+01  1.874539e+02 -1.236000e+02
     vertex -1.717689e+01  1.868997e+02 -1.236000e+02
     vertex -1.890000e+01  1.775422e+02 -1.236000e+02
   endloop
 endfacet
 facet normal  0.000000e+00  0.000000e+00 -1.000000e+00
   outer loop
     vertex -1.110000e+01  1.945422e+02 -1.236000e+02
     vertex -1.412820e+01  1.903410e+02 -1.236000e+02
     vertex -1.470366e+01  1.904828e+02 -1.236000e+02
   endloop
 endfacet
 facet normal  0.000000e+00  0.000000e+00 -1.000000e+00
   outer loop
     vertex -1.110000e+01  1.945422e+02 -1.236000e+02
     vertex -1.360341e+01  1.900656e+02 -1.236000e+02
     vertex -1.412820e+01  1.903410e+02 -1.236000e+02
   endloop
 endfacet
 facet normal  0.000000e+00  0.000000e+00 -1.000000e+00
   outer loop
     vertex -1.110000e+01  1.945422e+02 -1.236000e+02
     vertex -1.315979e+01  1.896725e+02 -1.236000e+02
     vertex -1.360341e+01  1.900656e+02 -1.236000e+02
   endloop
 endfacet
 facet normal  0.000000e+00  0.000000e+00 -1.000000e+00
   outer loop
     vertex -1.110000e+01  1.945422e+02 -1.236000e+02
     vertex -1.282311e+01  1.891848e+02 -1.236000e+02
     vertex -1.315979e+01  1.896725e+02 -1.236000e+02
   endloop
 endfacet
 facet normal  0.000000e+00  0.000000e+00 -1.000000e+00
   outer loop
     vertex -1.110000e+01  1.945422e+02 -1.236000e+02
     vertex -1.261294e+01  1.886306e+02 -1.236000e+02
     vertex -1.282311e+01  1.891848e+02 -1.236000e+02
   endloop
 endfacet
 facet normal  0.000000e+00  0.000000e+00 -1.000000e+00
   outer loop
     vertex -1.110000e+01  1.945422e+02 -1.236000e+02
     vertex -1.254150e+01  1.880422e+02 -1.236000e+02
     vertex -1.261294e+01  1.886306e+02 -1.236000e+02
   endloop
 endfacet
 facet normal  0.000000e+00  0.000000e+00 -1.000000e+00
   outer loop
     vertex -1.890000e+01  1.945422e+02 -1.236000e+02
     vertex -1.738706e+01  1.886306e+02 -1.236000e+02
     vertex -1.745850e+01  1.880422e+02 -1.236000e+02
   endloop
 endfacet
 facet normal  0.000000e+00  0.000000e+00 -1.000000e+00
   outer loop
     vertex -1.890000e+01  1.945422e+02 -1.236000e+02
     vertex -1.717689e+01  1.891848e+02 -1.236000e+02
     vertex -1.738706e+01  1.886306e+02 -1.236000e+02
   endloop
 endfacet
 facet normal  0.000000e+00  0.000000e+00 -1.000000e+00
   outer loop
     vertex -1.890000e+01  1.945422e+02 -1.236000e+02
     vertex -1.684021e+01  1.896725e+02 -1.236000e+02
     vertex -1.717689e+01  1.891848e+02 -1.236000e+02
   endloop
 endfacet
 facet normal  0.000000e+00  0.000000e+00 -1.000000e+00
   outer loop
     vertex -1.890000e+01  1.945422e+02 -1.236000e+02
     vertex -1.639659e+01  1.900656e+02 -1.236000e+02
     vertex -1.684021e+01  1.896725e+02 -1.236000e+02
   endloop
 endfacet
 facet normal  0.000000e+00  0.000000e+00 -1.000000e+00
   outer loop
     vertex -1.890000e+01  1.945422e+02 -1.236000e+02
     vertex -1.587180e+01  1.903410e+02 -1.236000e+02
     vertex -1.639659e+01  1.900656e+02 -1.236000e+02
   endloop
 endfacet
 facet normal  0.000000e+00  0.000000e+00 -1.000000e+00
   outer loop
     vertex -1.890000e+01  1.945422e+02 -1.236000e+02
     vertex -1.529634e+01  1.904828e+02 -1.236000e+02
     vertex -1.587180e+01  1.903410e+02 -1.236000e+02
   endloop
 endfacet
 facet normal  0.000000e+00  0.000000e+00 -1.000000e+00
   outer loop
     vertex -1.890000e+01  1.945422e+02 -1.236000e+02
     vertex -1.470366e+01  1.904828e+02 -1.236000e+02
     vertex -1.529634e+01  1.904828e+02 -1.236000e+02
   endloop
 endfacet
 facet normal  0.000000e+00  0.000000e+00 -1.000000e+00
   outer loop
     vertex -1.890000e+01  1.945422e+02 -1.236000e+02
     vertex -1.110000e+01  1.945422e+02 -1.236000e+02
     vertex -1.470366e+01  1.904828e+02 -1.236000e+02
   endloop
 endfacet
 facet normal  0.000000e+00  0.000000e+00 -1.000000e+00
   outer loop
     vertex -1.890000e+01  1.775422e+02 -1.236000e+02
     vertex -1.890000e+01  1.945422e+02 -1.236000e+02
     vertex -1.745850e+01  1.880422e+02 -1.236000e+02
   endloop
 endfacet
 facet normal  0.000000e+00  0.000000e+00 -1.000000e+00
   outer loop
     vertex -1.890000e+01  1.775422e+02 -1.236000e+02
     vertex -1.745850e+01  1.880422e+02 -1.236000e+02
     vertex -1.738706e+01  1.874539e+02 -1.236000e+02
   endloop
 endfacet
 facet normal  0.000000e+00 -0.000000e+00 -1.000000e+00
   outer loop
     vertex -1.110000e+01  1.945422e+02 -1.236000e+02
     vertex -1.110000e+01  1.775422e+02 -1.236000e+02
     vertex -1.254150e+01  1.880422e+02 -1.236000e+02
   endloop
 endfacet
 facet normal  0.000000e+00 -0.000000e+00 -1.000000e+00
   outer loop
     vertex -1.254150e+01  1.880422e+02 -1.236000e+02
     vertex -1.110000e+01  1.775422e+02 -1.236000e+02
     vertex -1.261294e+01  1.874539e+02 -1.236000e+02
   endloop
 endfacet
 facet normal  1.000000e+00  0.000000e+00  0.000000e+00
   outer loop
     vertex -1.110000e+01  1.775422e+02 -1.236000e+02
     vertex -1.110000e+01  1.945422e+02 -1.236000e+02
     vertex -1.110000e+01  1.945422e+02 -1.230000e+02
   endloop
 endfacet
 facet normal  1.000000e+00  0.000000e+00  0.000000e+00
   outer loop
     vertex -1.110000e+01  1.775422e+02 -1.236000e+02
     vertex -1.110000e+01  1.945422e+02 -1.230000e+02
     vertex -1.110000e+01  1.775422e+02 -1.230000e+02
   endloop
 endfacet
 facet normal  0.000000e+00  0.000000e+00 -1.000000e+00
   outer loop
     vertex -9.250000e+00  1.775422e+02 -1.230000e+02
     vertex -1.110000e+01  1.945422e+02 -1.230000e+02
     vertex -9.250000e+00  1.945422e+02 -1.230000e+02
   endloop
 endfacet
 facet normal  0.000000e+00  0.000000e+00 -1.000000e+00
   outer loop
     vertex -1.110000e+01  1.775422e+02 -1.230000e+02
     vertex -1.110000e+01  1.945422e+02 -1.230000e+02
     vertex -9.250000e+00  1.775422e+02 -1.230000e+02
   endloop
 endfacet
 facet normal  1.000000e+00  0.000000e+00  0.000000e+00
   outer loop
     vertex -9.250000e+00  1.775422e+02 -1.230000e+02
     vertex -9.250000e+00  1.945422e+02 -1.230000e+02
     vertex -9.250000e+00  1.945422e+02 -1.215000e+02
   endloop
 endfacet
 facet normal  1.000000e+00  0.000000e+00  0.000000e+00
   outer loop
     vertex -9.250000e+00  1.775422e+02 -1.230000e+02
     vertex -9.250000e+00  1.945422e+02 -1.215000e+02
     vertex -9.250000e+00  1.775422e+02 -1.215000e+02
   endloop
 endfacet
 facet normal  7.944146e-01  0.000000e+00  6.073758e-01
   outer loop
     vertex -1.284342e+01  1.868618e+02 -1.168000e+02
     vertex -1.284342e+01  1.775422e+02 -1.168000e+02
     vertex -9.250000e+00  1.775422e+02 -1.215000e+02
   endloop
 endfacet
 facet normal  7.944146e-01  3.757871e-15  6.073758e-01
   outer loop
     vertex -1.267757e+01  1.872357e+02 -1.170169e+02
     vertex -1.284342e+01  1.868618e+02 -1.168000e+02
     vertex -9.250000e+00  1.775422e+02 -1.215000e+02
   endloop
 endfacet
 facet normal  7.944146e-01 -9.970874e-15  6.073758e-01
   outer loop
     vertex -1.257552e+01  1.876347e+02 -1.171504e+02
     vertex -1.267757e+01  1.872357e+02 -1.170169e+02
     vertex -9.250000e+00  1.775422e+02 -1.215000e+02
   endloop
 endfacet
 facet normal  7.944146e-01  2.459402e-14  6.073758e-01
   outer loop
     vertex -1.254996e+01  1.878385e+02 -1.171838e+02
     vertex -1.257552e+01  1.876347e+02 -1.171504e+02
     vertex -9.250000e+00  1.775422e+02 -1.215000e+02
   endloop
 endfacet
 facet normal  7.944146e-01 -3.329170e-14  6.073758e-01
   outer loop
     vertex -9.250000e+00  1.945422e+02 -1.215000e+02
     vertex -1.254150e+01  1.880422e+02 -1.171949e+02
     vertex -1.254996e+01  1.878385e+02 -1.171838e+02
   endloop
 endfacet
 facet normal  7.944146e-01  0.000000e+00  6.073758e-01
   outer loop
     vertex -9.250000e+00  1.945422e+02 -1.215000e+02
     vertex -1.284342e+01  1.945422e+02 -1.168000e+02
     vertex -1.284342e+01  1.892227e+02 -1.168000e+02
   endloop
 endfacet
 facet normal  7.944146e-01  4.668411e-15  6.073758e-01
   outer loop
     vertex -9.250000e+00  1.945422e+02 -1.215000e+02
     vertex -1.256903e+01  1.884092e+02 -1.171589e+02
     vertex -1.254150e+01  1.880422e+02 -1.171949e+02
   endloop
 endfacet
 facet normal  7.944146e-01  6.319599e-15  6.073758e-01
   outer loop
     vertex -9.250000e+00  1.945422e+02 -1.215000e+02
     vertex -1.265184e+01  1.887705e+02 -1.170506e+02
     vertex -1.256903e+01  1.884092e+02 -1.171589e+02
   endloop
 endfacet
 facet normal  7.944146e-01 -5.909918e-15  6.073758e-01
   outer loop
     vertex -9.250000e+00  1.945422e+02 -1.215000e+02
     vertex -1.273668e+01  1.890022e+02 -1.169396e+02
     vertex -1.265184e+01  1.887705e+02 -1.170506e+02
   endloop
 endfacet
 facet normal  7.944146e-01  0.000000e+00  6.073758e-01
   outer loop
     vertex -9.250000e+00  1.945422e+02 -1.215000e+02
     vertex -1.284342e+01  1.892227e+02 -1.168000e+02
     vertex -1.273668e+01  1.890022e+02 -1.169396e+02
   endloop
 endfacet
 facet normal  7.944146e-01  0.000000e+00  6.073758e-01
   outer loop
     vertex -9.250000e+00  1.945422e+02 -1.215000e+02
     vertex -1.254996e+01  1.878385e+02 -1.171838e+02
     vertex -9.250000e+00  1.775422e+02 -1.215000e+02
   endloop
 endfacet
 facet normal  0.000000e+00  1.000000e+00  0.000000e+00
   outer loop
     vertex -1.110000e+01  1.945422e+02 -1.230000e+02
     vertex -9.250000e+00  1.945422e+02 -1.215000e+02
     vertex -9.250000e+00  1.945422e+02 -1.230000e+02
   endloop
 endfacet
 facet normal  0.000000e+00  1.000000e+00  0.000000e+00
   outer loop
     vertex -1.890000e+01  1.945422e+02 -1.230000e+02
     vertex -1.110000e+01  1.945422e+02 -1.236000e+02
     vertex -1.890000e+01  1.945422e+02 -1.236000e+02
   endloop
 endfacet
 facet normal -0.000000e+00  1.000000e+00  0.000000e+00
   outer loop
     vertex -1.890000e+01  1.945422e+02 -1.230000e+02
     vertex -1.110000e+01  1.945422e+02 -1.230000e+02
     vertex -1.110000e+01  1.945422e+02 -1.236000e+02
   endloop
 endfacet
 facet normal  0.000000e+00  1.000000e+00  0.000000e+00
   outer loop
     vertex -1.284342e+01  1.945422e+02 -1.168000e+02
     vertex -9.250000e+00  1.945422e+02 -1.215000e+02
     vertex -1.110000e+01  1.945422e+02 -1.230000e+02
   endloop
 endfacet
 facet normal  0.000000e+00  1.000000e+00  0.000000e+00
   outer loop
     vertex -2.075000e+01  1.945422e+02 -1.215000e+02
     vertex -1.890000e+01  1.945422e+02 -1.230000e+02
     vertex -2.075000e+01  1.945422e+02 -1.230000e+02
   endloop
 endfacet
 facet normal  0.000000e+00  1.000000e+00  0.000000e+00
   outer loop
     vertex -1.715658e+01  1.945422e+02 -1.168000e+02
     vertex -1.110000e+01  1.945422e+02 -1.230000e+02
     vertex -1.890000e+01  1.945422e+02 -1.230000e+02
   endloop
 endfacet
 facet normal -0.000000e+00  1.000000e+00  0.000000e+00
   outer loop
     vertex -1.715658e+01  1.945422e+02 -1.168000e+02
     vertex -1.284342e+01  1.945422e+02 -1.168000e+02
     vertex -1.110000e+01  1.945422e+02 -1.230000e+02
   endloop
 endfacet
 facet normal  0.000000e+00  1.000000e+00  0.000000e+00
   outer loop
     vertex -1.715658e+01  1.945422e+02 -1.168000e+02
     vertex -1.890000e+01  1.945422e+02 -1.230000e+02
     vertex -2.075000e+01  1.945422e+02 -1.215000e+02
   endloop
 endfacet
 facet normal  0.000000e+00 -1.000000e+00  0.000000e+00
   outer loop
     vertex -1.110000e+01  1.775422e+02 -1.230000e+02
     vertex -9.250000e+00  1.775422e+02 -1.215000e+02
     vertex -1.284342e+01  1.775422e+02 -1.168000e+02
   endloop
 endfacet
 facet normal  0.000000e+00 -1.000000e+00  0.000000e+00
   outer loop
     vertex -1.110000e+01  1.775422e+02 -1.230000e+02
     vertex -9.250000e+00  1.775422e+02 -1.230000e+02
     vertex -9.250000e+00  1.775422e+02 -1.215000e+02
   endloop
 endfacet
 facet normal  0.000000e+00 -1.000000e+00  0.000000e+00
   outer loop
     vertex -1.110000e+01  1.775422e+02 -1.230000e+02
     vertex -1.284342e+01  1.775422e+02 -1.168000e+02
     vertex -1.715658e+01  1.775422e+02 -1.168000e+02
   endloop
 endfacet
 facet normal  0.000000e+00 -1.000000e+00  0.000000e+00
   outer loop
     vertex -1.890000e+01  1.775422e+02 -1.230000e+02
     vertex -1.110000e+01  1.775422e+02 -1.236000e+02
     vertex -1.110000e+01  1.775422e+02 -1.230000e+02
   endloop
 endfacet
 facet normal  0.000000e+00 -1.000000e+00  0.000000e+00
   outer loop
     vertex -1.890000e+01  1.775422e+02 -1.230000e+02
     vertex -1.110000e+01  1.775422e+02 -1.230000e+02
     vertex -1.715658e+01  1.775422e+02 -1.168000e+02
   endloop
 endfacet
 facet normal  0.000000e+00 -1.000000e+00  0.000000e+00
   outer loop
     vertex -2.075000e+01  1.775422e+02 -1.215000e+02
     vertex -1.890000e+01  1.775422e+02 -1.230000e+02
     vertex -1.715658e+01  1.775422e+02 -1.168000e+02
   endloop
 endfacet
 facet normal  0.000000e+00 -1.000000e+00  0.000000e+00
   outer loop
     vertex -1.890000e+01  1.775422e+02 -1.236000e+02
     vertex -1.110000e+01  1.775422e+02 -1.236000e+02
     vertex -1.890000e+01  1.775422e+02 -1.230000e+02
   endloop
 endfacet
 facet normal  0.000000e+00 -1.000000e+00  0.000000e+00
   outer loop
     vertex -2.075000e+01  1.775422e+02 -1.230000e+02
     vertex -1.890000e+01  1.775422e+02 -1.230000e+02
     vertex -2.075000e+01  1.775422e+02 -1.215000e+02
   endloop
 endfacet
 facet normal  9.991393e-01 -4.147964e-02  0.000000e+00
   outer loop
     vertex -1.745850e+01  1.880422e+02 -1.236000e+02
     vertex -1.745004e+01  1.882460e+02 -1.171838e+02
     vertex -1.745850e+01  1.880422e+02 -1.171949e+02
   endloop
 endfacet
 facet normal  9.689164e-01 -2.473850e-01 -1.312768e-03
   outer loop
     vertex -1.738706e+01  1.886306e+02 -1.236000e+02
     vertex -1.732243e+01  1.888488e+02 -1.170169e+02
     vertex -1.742448e+01  1.884498e+02 -1.171504e+02
   endloop
 endfacet
 facet normal  9.921786e-01 -1.248063e-01  2.258236e-03
   outer loop
     vertex -1.738706e+01  1.886306e+02 -1.236000e+02
     vertex -1.742448e+01  1.884498e+02 -1.171504e+02
     vertex -1.745004e+01  1.882460e+02 -1.171838e+02
   endloop
 endfacet
 facet normal  9.927057e-01 -1.205363e-01  2.519351e-03
   outer loop
     vertex -1.738706e+01  1.886306e+02 -1.236000e+02
     vertex -1.745004e+01  1.882460e+02 -1.171838e+02
     vertex -1.745850e+01  1.880422e+02 -1.236000e+02
   endloop
 endfacet
 facet normal  9.141914e-01 -4.052825e-01 -4.724208e-04
   outer loop
     vertex -1.717689e+01  1.891848e+02 -1.236000e+02
     vertex -1.715658e+01  1.892227e+02 -1.168000e+02
     vertex -1.732243e+01  1.888488e+02 -1.170169e+02
   endloop
 endfacet
 facet normal  9.350131e-01 -3.546037e-01  2.574149e-03
   outer loop
     vertex -1.717689e+01  1.891848e+02 -1.236000e+02
     vertex -1.732243e+01  1.888488e+02 -1.170169e+02
     vertex -1.738706e+01  1.886306e+02 -1.236000e+02
   endloop
 endfacet
 facet normal  8.140530e-01 -5.807904e-01 -5.501099e-04
   outer loop
     vertex -1.684021e+01  1.896725e+02 -1.236000e+02
     vertex -1.681787e+01  1.896974e+02 -1.168000e+02
     vertex -1.715658e+01  1.892227e+02 -1.168000e+02
   endloop
 endfacet
 facet normal  8.229837e-01 -5.680646e-01  7.072805e-04
   outer loop
     vertex -1.684021e+01  1.896725e+02 -1.236000e+02
     vertex -1.715658e+01  1.892227e+02 -1.168000e+02
     vertex -1.717689e+01  1.891848e+02 -1.236000e+02
   endloop
 endfacet
 facet normal  6.543499e-01 -7.561918e-01 -3.997207e-04
   outer loop
     vertex -1.639659e+01  1.900656e+02 -1.236000e+02
     vertex -1.637686e+01  1.900790e+02 -1.168000e+02
     vertex -1.681787e+01  1.896974e+02 -1.168000e+02
   endloop
 endfacet
 facet normal  6.631226e-01 -7.485106e-01  5.596068e-04
   outer loop
     vertex -1.639659e+01  1.900656e+02 -1.236000e+02
     vertex -1.681787e+01  1.896974e+02 -1.168000e+02
     vertex -1.684021e+01  1.896725e+02 -1.236000e+02
   endloop
 endfacet
 facet normal  4.578261e-01 -8.890417e-01 -2.439022e-04
   outer loop
     vertex -1.587180e+01  1.903410e+02 -1.236000e+02
     vertex -1.585838e+01  1.903460e+02 -1.168000e+02
     vertex -1.637686e+01  1.900790e+02 -1.168000e+02
   endloop
 endfacet
 facet normal  4.647231e-01 -8.854560e-01  4.065027e-04
   outer loop
     vertex -1.587180e+01  1.903410e+02 -1.236000e+02
     vertex -1.637686e+01  1.900790e+02 -1.168000e+02
     vertex -1.639659e+01  1.900656e+02 -1.236000e+02
   endloop
 endfacet
 facet normal  2.355401e-01 -9.718646e-01 -8.265696e-05
   outer loop
     vertex -1.529634e+01  1.904828e+02 -1.236000e+02
     vertex -1.529160e+01  1.904834e+02 -1.168000e+02
     vertex -1.585838e+01  1.903460e+02 -1.168000e+02
   endloop
 endfacet
 facet normal  2.393157e-01 -9.709418e-01  2.479706e-04
   outer loop
     vertex -1.529634e+01  1.904828e+02 -1.236000e+02
     vertex -1.585838e+01  1.903460e+02 -1.168000e+02
     vertex -1.587180e+01  1.903410e+02 -1.236000e+02
   endloop
 endfacet
 facet normal  0.000000e+00 -1.000000e+00  8.401275e-05
   outer loop
     vertex -1.470366e+01  1.904828e+02 -1.236000e+02
     vertex -1.470840e+01  1.904834e+02 -1.168000e+02
     vertex -1.529160e+01  1.904834e+02 -1.168000e+02
   endloop
 endfacet
 facet normal -2.355401e-01 -9.718646e-01 -8.265696e-05
   outer loop
     vertex -1.470366e+01  1.904828e+02 -1.236000e+02
     vertex -1.414162e+01  1.903460e+02 -1.168000e+02
     vertex -1.470840e+01  1.904834e+02 -1.168000e+02
   endloop
 endfacet
 facet normal  0.000000e+00 -1.000000e+00  8.401275e-05
   outer loop
     vertex -1.470366e+01  1.904828e+02 -1.236000e+02
     vertex -1.529160e+01  1.904834e+02 -1.168000e+02
     vertex -1.529634e+01  1.904828e+02 -1.236000e+02
   endloop
 endfacet
 facet normal -4.578261e-01 -8.890417e-01 -2.439022e-04
   outer loop
     vertex -1.412820e+01  1.903410e+02 -1.236000e+02
     vertex -1.362314e+01  1.900790e+02 -1.168000e+02
     vertex -1.414162e+01  1.903460e+02 -1.168000e+02
   endloop
 endfacet
 facet normal -2.393157e-01 -9.709418e-01  2.479706e-04
   outer loop
     vertex -1.412820e+01  1.903410e+02 -1.236000e+02
     vertex -1.414162e+01  1.903460e+02 -1.168000e+02
     vertex -1.470366e+01  1.904828e+02 -1.236000e+02
   endloop
 endfacet
 facet normal -6.543499e-01 -7.561918e-01 -3.997207e-04
   outer loop
     vertex -1.360341e+01  1.900656e+02 -1.236000e+02
     vertex -1.318213e+01  1.896974e+02 -1.168000e+02
     vertex -1.362314e+01  1.900790e+02 -1.168000e+02
   endloop
 endfacet
 facet normal -4.647231e-01 -8.854560e-01  4.065027e-04
   outer loop
     vertex -1.360341e+01  1.900656e+02 -1.236000e+02
     vertex -1.362314e+01  1.900790e+02 -1.168000e+02
     vertex -1.412820e+01  1.903410e+02 -1.236000e+02
   endloop
 endfacet
 facet normal -8.140530e-01 -5.807904e-01 -5.501099e-04
   outer loop
     vertex -1.315979e+01  1.896725e+02 -1.236000e+02
     vertex -1.284342e+01  1.892227e+02 -1.168000e+02
     vertex -1.318213e+01  1.896974e+02 -1.168000e+02
   endloop
 endfacet
 facet normal -6.631226e-01 -7.485106e-01  5.596068e-04
   outer loop
     vertex -1.315979e+01  1.896725e+02 -1.236000e+02
     vertex -1.318213e+01  1.896974e+02 -1.168000e+02
     vertex -1.360341e+01  1.900656e+02 -1.236000e+02
   endloop
 endfacet
 facet normal -9.386218e-01 -3.449371e-01  2.727208e-03
   outer loop
     vertex -1.282311e+01  1.891848e+02 -1.236000e+02
     vertex -1.265184e+01  1.887705e+02 -1.170506e+02
     vertex -1.273668e+01  1.890022e+02 -1.169396e+02
   endloop
 endfacet
 facet normal -9.000838e-01 -4.357167e-01 -2.606584e-04
   outer loop
     vertex -1.282311e+01  1.891848e+02 -1.236000e+02
     vertex -1.273668e+01  1.890022e+02 -1.169396e+02
     vertex -1.284342e+01  1.892227e+02 -1.168000e+02
   endloop
 endfacet
 facet normal -8.229837e-01 -5.680646e-01  7.072805e-04
   outer loop
     vertex -1.282311e+01  1.891848e+02 -1.236000e+02
     vertex -1.284342e+01  1.892227e+02 -1.168000e+02
     vertex -1.315979e+01  1.896725e+02 -1.236000e+02
   endloop
 endfacet
 facet normal -9.747999e-01 -2.230786e-01 -1.024698e-03
   outer loop
     vertex -1.261294e+01  1.886306e+02 -1.236000e+02
     vertex -1.256903e+01  1.884092e+02 -1.171589e+02
     vertex -1.265184e+01  1.887705e+02 -1.170506e+02
   endloop
 endfacet
 facet normal -9.350143e-01 -3.546042e-01  2.021440e-03
   outer loop
     vertex -1.261294e+01  1.886306e+02 -1.236000e+02
     vertex -1.265184e+01  1.887705e+02 -1.170506e+02
     vertex -1.282311e+01  1.891848e+02 -1.236000e+02
   endloop
 endfacet
 facet normal -9.971962e-01 -7.483095e-02  0.000000e+00
   outer loop
     vertex -1.254150e+01  1.880422e+02 -1.236000e+02
     vertex -1.254150e+01  1.880422e+02 -1.171949e+02
     vertex -1.256903e+01  1.884092e+02 -1.171589e+02
   endloop
 endfacet
 facet normal -9.927055e-01 -1.205363e-01  2.622757e-03
   outer loop
     vertex -1.254150e+01  1.880422e+02 -1.236000e+02
     vertex -1.256903e+01  1.884092e+02 -1.171589e+02
     vertex -1.261294e+01  1.886306e+02 -1.236000e+02
   endloop
 endfacet
endsolid
