solid 
 facet normal  1.205367e-01  0.000000e+00  9.927089e-01
   outer loop
     vertex  4.500000e+01  1.380000e+01 -7.700000e+01
     vertex  4.500000e+01  1.800000e+00 -7.700000e+01
     vertex  4.571795e+01  1.800000e+00 -7.708717e+01
   endloop
 endfacet
 facet normal  3.546049e-01 -2.099683e-16  9.350162e-01
   outer loop
     vertex  4.571795e+01  1.380000e+01 -7.708717e+01
     vertex  4.571795e+01  1.800000e+00 -7.708717e+01
     vertex  4.639417e+01  1.800000e+00 -7.734363e+01
   endloop
 endfacet
 facet normal  1.205367e-01 -7.137205e-17  9.927089e-01
   outer loop
     vertex  4.571795e+01  1.380000e+01 -7.708717e+01
     vertex  4.500000e+01  1.380000e+01 -7.700000e+01
     vertex  4.571795e+01  1.800000e+00 -7.708717e+01
   endloop
 endfacet
 facet normal  5.680647e-01  0.000000e+00  8.229839e-01
   outer loop
     vertex  4.639417e+01  1.380000e+01 -7.734363e+01
     vertex  4.639417e+01  1.800000e+00 -7.734363e+01
     vertex  4.698937e+01  1.800000e+00 -7.775447e+01
   endloop
 endfacet
 facet normal  3.546049e-01  0.000000e+00  9.350162e-01
   outer loop
     vertex  4.639417e+01  1.380000e+01 -7.734363e+01
     vertex  4.571795e+01  1.380000e+01 -7.708717e+01
     vertex  4.639417e+01  1.800000e+00 -7.734363e+01
   endloop
 endfacet
 facet normal  7.485107e-01  0.000000e+00  6.631227e-01
   outer loop
     vertex  4.698937e+01  1.380000e+01 -7.775447e+01
     vertex  4.698937e+01  1.800000e+00 -7.775447e+01
     vertex  4.746895e+01  1.800000e+00 -7.829581e+01
   endloop
 endfacet
 facet normal  5.680647e-01  0.000000e+00  8.229839e-01
   outer loop
     vertex  4.698937e+01  1.380000e+01 -7.775447e+01
     vertex  4.639417e+01  1.380000e+01 -7.734363e+01
     vertex  4.698937e+01  1.800000e+00 -7.775447e+01
   endloop
 endfacet
 facet normal  7.485107e-01  0.000000e+00  6.631227e-01
   outer loop
     vertex  4.746895e+01  1.380000e+01 -7.829581e+01
     vertex  4.698937e+01  1.380000e+01 -7.775447e+01
     vertex  4.746895e+01  1.800000e+00 -7.829581e+01
   endloop
 endfacet
 facet normal  8.854560e-01  0.000000e+00  4.647232e-01
   outer loop
     vertex  4.780505e+01  1.380000e+01 -7.893619e+01
     vertex  4.746895e+01  1.800000e+00 -7.829581e+01
     vertex  4.780505e+01  1.800000e+00 -7.893619e+01
   endloop
 endfacet
 facet normal  9.709418e-01  0.000000e+00  2.393157e-01
   outer loop
     vertex  4.780505e+01  1.380000e+01 -7.893619e+01
     vertex  4.780505e+01  1.800000e+00 -7.893619e+01
     vertex  4.797813e+01  1.800000e+00 -7.963839e+01
   endloop
 endfacet
 facet normal  8.854560e-01  0.000000e+00  4.647232e-01
   outer loop
     vertex  4.780505e+01  1.380000e+01 -7.893619e+01
     vertex  4.746895e+01  1.380000e+01 -7.829581e+01
     vertex  4.746895e+01  1.800000e+00 -7.829581e+01
   endloop
 endfacet
 facet normal  9.709418e-01  0.000000e+00  2.393157e-01
   outer loop
     vertex  4.797813e+01  1.380000e+01 -7.963839e+01
     vertex  4.780505e+01  1.380000e+01 -7.893619e+01
     vertex  4.797813e+01  1.800000e+00 -7.963839e+01
   endloop
 endfacet
 facet normal  1.000000e+00  0.000000e+00  0.000000e+00
   outer loop
     vertex  4.797813e+01  1.380000e+01 -8.036161e+01
     vertex  4.797813e+01  1.800000e+00 -7.963839e+01
     vertex  4.797813e+01  1.800000e+00 -8.036161e+01
   endloop
 endfacet
 facet normal  1.000000e+00  0.000000e+00 -0.000000e+00
   outer loop
     vertex  4.797813e+01  1.380000e+01 -8.036161e+01
     vertex  4.797813e+01  1.380000e+01 -7.963839e+01
     vertex  4.797813e+01  1.800000e+00 -7.963839e+01
   endloop
 endfacet
 facet normal  9.709418e-01  0.000000e+00 -2.393157e-01
   outer loop
     vertex  4.780505e+01  1.380000e+01 -8.106381e+01
     vertex  4.797813e+01  1.800000e+00 -8.036161e+01
     vertex  4.780505e+01  1.800000e+00 -8.106381e+01
   endloop
 endfacet
 facet normal  9.709418e-01  0.000000e+00 -2.393157e-01
   outer loop
     vertex  4.780505e+01  1.380000e+01 -8.106381e+01
     vertex  4.797813e+01  1.380000e+01 -8.036161e+01
     vertex  4.797813e+01  1.800000e+00 -8.036161e+01
   endloop
 endfacet
 facet normal  8.854560e-01  0.000000e+00 -4.647232e-01
   outer loop
     vertex  4.746895e+01  1.380000e+01 -8.170419e+01
     vertex  4.780505e+01  1.800000e+00 -8.106381e+01
     vertex  4.746895e+01  1.800000e+00 -8.170419e+01
   endloop
 endfacet
 facet normal  8.854560e-01  0.000000e+00 -4.647232e-01
   outer loop
     vertex  4.746895e+01  1.380000e+01 -8.170419e+01
     vertex  4.780505e+01  1.380000e+01 -8.106381e+01
     vertex  4.780505e+01  1.800000e+00 -8.106381e+01
   endloop
 endfacet
 facet normal  7.485107e-01  0.000000e+00 -6.631227e-01
   outer loop
     vertex  4.698937e+01  1.380000e+01 -8.224553e+01
     vertex  4.746895e+01  1.800000e+00 -8.170419e+01
     vertex  4.698937e+01  1.800000e+00 -8.224553e+01
   endloop
 endfacet
 facet normal  5.680647e-01  0.000000e+00 -8.229839e-01
   outer loop
     vertex  4.698937e+01  1.380000e+01 -8.224553e+01
     vertex  4.698937e+01  1.800000e+00 -8.224553e+01
     vertex  4.639417e+01  1.800000e+00 -8.265637e+01
   endloop
 endfacet
 facet normal  7.485107e-01  0.000000e+00 -6.631227e-01
   outer loop
     vertex  4.698937e+01  1.380000e+01 -8.224553e+01
     vertex  4.746895e+01  1.380000e+01 -8.170419e+01
     vertex  4.746895e+01  1.800000e+00 -8.170419e+01
   endloop
 endfacet
 facet normal  5.680647e-01  0.000000e+00 -8.229839e-01
   outer loop
     vertex  4.639417e+01  1.380000e+01 -8.265637e+01
     vertex  4.698937e+01  1.380000e+01 -8.224553e+01
     vertex  4.639417e+01  1.800000e+00 -8.265637e+01
   endloop
 endfacet
 facet normal  3.546049e-01  2.099683e-16 -9.350162e-01
   outer loop
     vertex  4.571795e+01  1.380000e+01 -8.291283e+01
     vertex  4.639417e+01  1.800000e+00 -8.265637e+01
     vertex  4.571795e+01  1.800000e+00 -8.291283e+01
   endloop
 endfacet
 facet normal  1.205367e-01  7.137205e-17 -9.927089e-01
   outer loop
     vertex  4.571795e+01  1.380000e+01 -8.291283e+01
     vertex  4.571795e+01  1.800000e+00 -8.291283e+01
     vertex  4.500000e+01  1.800000e+00 -8.300000e+01
   endloop
 endfacet
 facet normal  3.546049e-01  0.000000e+00 -9.350162e-01
   outer loop
     vertex  4.571795e+01  1.380000e+01 -8.291283e+01
     vertex  4.639417e+01  1.380000e+01 -8.265637e+01
     vertex  4.639417e+01  1.800000e+00 -8.265637e+01
   endloop
 endfacet
 facet normal  1.205367e-01  0.000000e+00 -9.927089e-01
   outer loop
     vertex  4.500000e+01  1.380000e+01 -8.300000e+01
     vertex  4.571795e+01  1.380000e+01 -8.291283e+01
     vertex  4.500000e+01  1.800000e+00 -8.300000e+01
   endloop
 endfacet
 facet normal  1.205367e-01  2.854882e-16  9.927089e-01
   outer loop
     vertex  4.619658e+01  1.980000e+01 -7.514529e+01
     vertex  4.500000e+01  1.380000e+01 -7.500000e+01
     vertex  4.619658e+01  1.380000e+01 -7.514529e+01
   endloop
 endfacet
 facet normal  1.205367e-01  0.000000e+00  9.927089e-01
   outer loop
     vertex  4.619658e+01  1.980000e+01 -7.514529e+01
     vertex  4.500000e+01  1.980000e+01 -7.500000e+01
     vertex  4.500000e+01  1.380000e+01 -7.500000e+01
   endloop
 endfacet
 facet normal  3.546049e-01  4.199365e-16  9.350162e-01
   outer loop
     vertex  4.732362e+01  1.980000e+01 -7.557272e+01
     vertex  4.619658e+01  1.380000e+01 -7.514529e+01
     vertex  4.732362e+01  1.380000e+01 -7.557272e+01
   endloop
 endfacet
 facet normal  3.546049e-01  8.366354e-16  9.350162e-01
   outer loop
     vertex  4.732362e+01  1.980000e+01 -7.557272e+01
     vertex  4.619658e+01  1.980000e+01 -7.514529e+01
     vertex  4.619658e+01  1.380000e+01 -7.514529e+01
   endloop
 endfacet
 facet normal  5.680647e-01  6.727238e-16  8.229839e-01
   outer loop
     vertex  4.831561e+01  1.980000e+01 -7.625745e+01
     vertex  4.732362e+01  1.380000e+01 -7.557272e+01
     vertex  4.831561e+01  1.380000e+01 -7.625745e+01
   endloop
 endfacet
 facet normal  5.680647e-01  6.754488e-16  8.229839e-01
   outer loop
     vertex  4.831561e+01  1.980000e+01 -7.625745e+01
     vertex  4.732362e+01  1.980000e+01 -7.557272e+01
     vertex  4.732362e+01  1.380000e+01 -7.557272e+01
   endloop
 endfacet
 facet normal  7.485107e-01 -6.841752e-16  6.631227e-01
   outer loop
     vertex  4.911492e+01  1.980000e+01 -7.715968e+01
     vertex  4.831561e+01  1.380000e+01 -7.625745e+01
     vertex  4.911492e+01  1.380000e+01 -7.715968e+01
   endloop
 endfacet
 facet normal  7.485107e-01  8.903643e-16  6.631227e-01
   outer loop
     vertex  4.911492e+01  1.980000e+01 -7.715968e+01
     vertex  4.831561e+01  1.980000e+01 -7.625745e+01
     vertex  4.831561e+01  1.380000e+01 -7.625745e+01
   endloop
 endfacet
 facet normal  8.854560e-01  1.048591e-15  4.647232e-01
   outer loop
     vertex  4.967508e+01  1.980000e+01 -7.822698e+01
     vertex  4.911492e+01  1.380000e+01 -7.715968e+01
     vertex  4.967508e+01  1.380000e+01 -7.822698e+01
   endloop
 endfacet
 facet normal  8.854560e-01 -6.140444e-17  4.647232e-01
   outer loop
     vertex  4.967508e+01  1.980000e+01 -7.822698e+01
     vertex  4.911492e+01  1.980000e+01 -7.715968e+01
     vertex  4.911492e+01  1.380000e+01 -7.715968e+01
   endloop
 endfacet
 facet normal  9.709418e-01 -5.668134e-16  2.393157e-01
   outer loop
     vertex  4.996354e+01  1.980000e+01 -7.939732e+01
     vertex  4.967508e+01  1.380000e+01 -7.822698e+01
     vertex  4.996354e+01  1.380000e+01 -7.939732e+01
   endloop
 endfacet
 facet normal  9.709418e-01  1.151333e-15  2.393157e-01
   outer loop
     vertex  4.996354e+01  1.980000e+01 -7.939732e+01
     vertex  4.967508e+01  1.980000e+01 -7.822698e+01
     vertex  4.967508e+01  1.380000e+01 -7.822698e+01
   endloop
 endfacet
 facet normal  1.000000e+00  2.792350e-29 -1.178965e-14
   outer loop
     vertex  4.996354e+01  1.980000e+01 -8.060268e+01
     vertex  4.996354e+01  1.380000e+01 -7.939732e+01
     vertex  4.996354e+01  1.380000e+01 -8.060268e+01
   endloop
 endfacet
 facet normal  1.000000e+00  2.792350e-29 -1.178965e-14
   outer loop
     vertex  4.996354e+01  1.980000e+01 -8.060268e+01
     vertex  4.996354e+01  1.980000e+01 -7.939732e+01
     vertex  4.996354e+01  1.380000e+01 -7.939732e+01
   endloop
 endfacet
 facet normal  9.709418e-01  5.668134e-16 -2.393157e-01
   outer loop
     vertex  4.967508e+01  1.980000e+01 -8.177302e+01
     vertex  4.996354e+01  1.380000e+01 -8.060268e+01
     vertex  4.967508e+01  1.380000e+01 -8.177302e+01
   endloop
 endfacet
 facet normal  9.709418e-01  5.679910e-16 -2.393157e-01
   outer loop
     vertex  4.967508e+01  1.980000e+01 -8.177302e+01
     vertex  4.996354e+01  1.980000e+01 -8.060268e+01
     vertex  4.996354e+01  1.380000e+01 -8.060268e+01
   endloop
 endfacet
 facet normal  8.854560e-01 -1.048591e-15 -4.647232e-01
   outer loop
     vertex  4.911492e+01  1.980000e+01 -8.284032e+01
     vertex  4.967508e+01  1.380000e+01 -8.177302e+01
     vertex  4.911492e+01  1.380000e+01 -8.284032e+01
   endloop
 endfacet
 facet normal  8.854560e-01  1.089929e-15 -4.647232e-01
   outer loop
     vertex  4.911492e+01  1.980000e+01 -8.284032e+01
     vertex  4.967508e+01  1.980000e+01 -8.177302e+01
     vertex  4.967508e+01  1.380000e+01 -8.177302e+01
   endloop
 endfacet
 facet normal  7.485107e-01  2.254765e-15 -6.631227e-01
   outer loop
     vertex  4.831561e+01  1.980000e+01 -8.374255e+01
     vertex  4.911492e+01  1.380000e+01 -8.284032e+01
     vertex  4.831561e+01  1.380000e+01 -8.374255e+01
   endloop
 endfacet
 facet normal  7.485107e-01 -8.903643e-16 -6.631227e-01
   outer loop
     vertex  4.831561e+01  1.980000e+01 -8.374255e+01
     vertex  4.911492e+01  1.980000e+01 -8.284032e+01
     vertex  4.911492e+01  1.380000e+01 -8.284032e+01
   endloop
 endfacet
 facet normal  3.546049e-01  0.000000e+00 -9.350162e-01
   outer loop
     vertex  4.732362e+01  1.980000e+01 -8.442728e+01
     vertex  4.732362e+01  1.380000e+01 -8.442728e+01
     vertex  4.619658e+01  1.380000e+01 -8.485471e+01
   endloop
 endfacet
 facet normal  5.680647e-01  0.000000e+00 -8.229839e-01
   outer loop
     vertex  4.732362e+01  1.980000e+01 -8.442728e+01
     vertex  4.831561e+01  1.380000e+01 -8.374255e+01
     vertex  4.732362e+01  1.380000e+01 -8.442728e+01
   endloop
 endfacet
 facet normal  5.680647e-01  3.223733e-15 -8.229839e-01
   outer loop
     vertex  4.732362e+01  1.980000e+01 -8.442728e+01
     vertex  4.831561e+01  1.980000e+01 -8.374255e+01
     vertex  4.831561e+01  1.380000e+01 -8.374255e+01
   endloop
 endfacet
 facet normal  3.546049e-01  0.000000e+00 -9.350162e-01
   outer loop
     vertex  4.619658e+01  1.980000e+01 -8.485471e+01
     vertex  4.732362e+01  1.980000e+01 -8.442728e+01
     vertex  4.619658e+01  1.380000e+01 -8.485471e+01
   endloop
 endfacet
 facet normal  1.205367e-01  0.000000e+00 -9.927089e-01
   outer loop
     vertex  4.500000e+01  1.980000e+01 -8.500000e+01
     vertex  4.619658e+01  1.380000e+01 -8.485471e+01
     vertex  4.500000e+01  1.380000e+01 -8.500000e+01
   endloop
 endfacet
 facet normal  1.205367e-01  0.000000e+00 -9.927089e-01
   outer loop
     vertex  4.500000e+01  1.980000e+01 -8.500000e+01
     vertex  4.619658e+01  1.980000e+01 -8.485471e+01
     vertex  4.619658e+01  1.380000e+01 -8.485471e+01
   endloop
 endfacet
 facet normal  0.000000e+00  1.000000e+00  0.000000e+00
   outer loop
     vertex  4.355662e+01  1.980000e+01 -8.250000e+01
     vertex  4.500000e+01  1.980000e+01 -8.500000e+01
     vertex  4.380342e+01  1.980000e+01 -8.485471e+01
   endloop
 endfacet
 facet normal  0.000000e+00  1.000000e+00  0.000000e+00
   outer loop
     vertex  4.355662e+01  1.980000e+01 -8.250000e+01
     vertex  4.380342e+01  1.980000e+01 -8.485471e+01
     vertex  4.267638e+01  1.980000e+01 -8.442728e+01
   endloop
 endfacet
 facet normal  0.000000e+00  1.000000e+00  0.000000e+00
   outer loop
     vertex  4.355662e+01  1.980000e+01 -8.250000e+01
     vertex  4.267638e+01  1.980000e+01 -8.442728e+01
     vertex  4.168439e+01  1.980000e+01 -8.374255e+01
   endloop
 endfacet
 facet normal  0.000000e+00  1.000000e+00  0.000000e+00
   outer loop
     vertex  4.355662e+01  1.980000e+01 -8.250000e+01
     vertex  4.168439e+01  1.980000e+01 -8.374255e+01
     vertex  4.088508e+01  1.980000e+01 -8.284032e+01
   endloop
 endfacet
 facet normal  0.000000e+00  1.000000e+00  0.000000e+00
   outer loop
     vertex  4.211325e+01  1.980000e+01 -8.000000e+01
     vertex  4.088508e+01  1.980000e+01 -8.284032e+01
     vertex  4.032492e+01  1.980000e+01 -8.177302e+01
   endloop
 endfacet
 facet normal  0.000000e+00  1.000000e+00  0.000000e+00
   outer loop
     vertex  4.211325e+01  1.980000e+01 -8.000000e+01
     vertex  4.032492e+01  1.980000e+01 -8.177302e+01
     vertex  4.003646e+01  1.980000e+01 -8.060268e+01
   endloop
 endfacet
 facet normal  0.000000e+00  1.000000e+00  0.000000e+00
   outer loop
     vertex  4.211325e+01  1.980000e+01 -8.000000e+01
     vertex  4.003646e+01  1.980000e+01 -8.060268e+01
     vertex  4.003646e+01  1.980000e+01 -7.939732e+01
   endloop
 endfacet
 facet normal  0.000000e+00  1.000000e+00  0.000000e+00
   outer loop
     vertex  4.211325e+01  1.980000e+01 -8.000000e+01
     vertex  4.003646e+01  1.980000e+01 -7.939732e+01
     vertex  4.032492e+01  1.980000e+01 -7.822698e+01
   endloop
 endfacet
 facet normal  0.000000e+00  1.000000e+00  0.000000e+00
   outer loop
     vertex  4.211325e+01  1.980000e+01 -8.000000e+01
     vertex  4.355662e+01  1.980000e+01 -8.250000e+01
     vertex  4.088508e+01  1.980000e+01 -8.284032e+01
   endloop
 endfacet
 facet normal  0.000000e+00  1.000000e+00  0.000000e+00
   outer loop
     vertex  4.088508e+01  1.980000e+01 -7.715968e+01
     vertex  4.211325e+01  1.980000e+01 -8.000000e+01
     vertex  4.032492e+01  1.980000e+01 -7.822698e+01
   endloop
 endfacet
 facet normal  0.000000e+00  1.000000e+00  0.000000e+00
   outer loop
     vertex  4.644338e+01  1.980000e+01 -8.250000e+01
     vertex  4.732362e+01  1.980000e+01 -8.442728e+01
     vertex  4.619658e+01  1.980000e+01 -8.485471e+01
   endloop
 endfacet
 facet normal  0.000000e+00  1.000000e+00  0.000000e+00
   outer loop
     vertex  4.644338e+01  1.980000e+01 -8.250000e+01
     vertex  4.619658e+01  1.980000e+01 -8.485471e+01
     vertex  4.500000e+01  1.980000e+01 -8.500000e+01
   endloop
 endfacet
 facet normal  0.000000e+00  1.000000e+00  0.000000e+00
   outer loop
     vertex  4.644338e+01  1.980000e+01 -8.250000e+01
     vertex  4.500000e+01  1.980000e+01 -8.500000e+01
     vertex  4.355662e+01  1.980000e+01 -8.250000e+01
   endloop
 endfacet
 facet normal  0.000000e+00  1.000000e+00  0.000000e+00
   outer loop
     vertex  4.831561e+01  1.980000e+01 -8.374255e+01
     vertex  4.732362e+01  1.980000e+01 -8.442728e+01
     vertex  4.644338e+01  1.980000e+01 -8.250000e+01
   endloop
 endfacet
 facet normal  0.000000e+00  1.000000e+00  0.000000e+00
   outer loop
     vertex  4.355662e+01  1.980000e+01 -7.750000e+01
     vertex  4.088508e+01  1.980000e+01 -7.715968e+01
     vertex  4.168439e+01  1.980000e+01 -7.625745e+01
   endloop
 endfacet
 facet normal  0.000000e+00  1.000000e+00  0.000000e+00
   outer loop
     vertex  4.355662e+01  1.980000e+01 -7.750000e+01
     vertex  4.211325e+01  1.980000e+01 -8.000000e+01
     vertex  4.088508e+01  1.980000e+01 -7.715968e+01
   endloop
 endfacet
 facet normal  0.000000e+00  1.000000e+00  0.000000e+00
   outer loop
     vertex  4.911492e+01  1.980000e+01 -8.284032e+01
     vertex  4.831561e+01  1.980000e+01 -8.374255e+01
     vertex  4.644338e+01  1.980000e+01 -8.250000e+01
   endloop
 endfacet
 facet normal  0.000000e+00  1.000000e+00  0.000000e+00
   outer loop
     vertex  4.267638e+01  1.980000e+01 -7.557272e+01
     vertex  4.355662e+01  1.980000e+01 -7.750000e+01
     vertex  4.168439e+01  1.980000e+01 -7.625745e+01
   endloop
 endfacet
 facet normal  0.000000e+00  1.000000e+00  0.000000e+00
   outer loop
     vertex  4.788675e+01  1.980000e+01 -8.000000e+01
     vertex  4.911492e+01  1.980000e+01 -8.284032e+01
     vertex  4.644338e+01  1.980000e+01 -8.250000e+01
   endloop
 endfacet
 facet normal  0.000000e+00  1.000000e+00  0.000000e+00
   outer loop
     vertex  4.967508e+01  1.980000e+01 -8.177302e+01
     vertex  4.911492e+01  1.980000e+01 -8.284032e+01
     vertex  4.788675e+01  1.980000e+01 -8.000000e+01
   endloop
 endfacet
 facet normal  0.000000e+00  1.000000e+00  0.000000e+00
   outer loop
     vertex  4.380342e+01  1.980000e+01 -7.514529e+01
     vertex  4.355662e+01  1.980000e+01 -7.750000e+01
     vertex  4.267638e+01  1.980000e+01 -7.557272e+01
   endloop
 endfacet
 facet normal  0.000000e+00  1.000000e+00  0.000000e+00
   outer loop
     vertex  4.996354e+01  1.980000e+01 -8.060268e+01
     vertex  4.967508e+01  1.980000e+01 -8.177302e+01
     vertex  4.788675e+01  1.980000e+01 -8.000000e+01
   endloop
 endfacet
 facet normal  0.000000e+00  1.000000e+00  0.000000e+00
   outer loop
     vertex  4.500000e+01  1.980000e+01 -7.500000e+01
     vertex  4.644338e+01  1.980000e+01 -7.750000e+01
     vertex  4.355662e+01  1.980000e+01 -7.750000e+01
   endloop
 endfacet
 facet normal  0.000000e+00  1.000000e+00  0.000000e+00
   outer loop
     vertex  4.500000e+01  1.980000e+01 -7.500000e+01
     vertex  4.355662e+01  1.980000e+01 -7.750000e+01
     vertex  4.380342e+01  1.980000e+01 -7.514529e+01
   endloop
 endfacet
 facet normal  0.000000e+00  1.000000e+00  0.000000e+00
   outer loop
     vertex  4.996354e+01  1.980000e+01 -7.939732e+01
     vertex  4.996354e+01  1.980000e+01 -8.060268e+01
     vertex  4.788675e+01  1.980000e+01 -8.000000e+01
   endloop
 endfacet
 facet normal  0.000000e+00  1.000000e+00  0.000000e+00
   outer loop
     vertex  4.619658e+01  1.980000e+01 -7.514529e+01
     vertex  4.644338e+01  1.980000e+01 -7.750000e+01
     vertex  4.500000e+01  1.980000e+01 -7.500000e+01
   endloop
 endfacet
 facet normal  0.000000e+00  1.000000e+00  0.000000e+00
   outer loop
     vertex  4.967508e+01  1.980000e+01 -7.822698e+01
     vertex  4.996354e+01  1.980000e+01 -7.939732e+01
     vertex  4.788675e+01  1.980000e+01 -8.000000e+01
   endloop
 endfacet
 facet normal  0.000000e+00  1.000000e+00  0.000000e+00
   outer loop
     vertex  4.732362e+01  1.980000e+01 -7.557272e+01
     vertex  4.644338e+01  1.980000e+01 -7.750000e+01
     vertex  4.619658e+01  1.980000e+01 -7.514529e+01
   endloop
 endfacet
 facet normal  0.000000e+00  1.000000e+00  0.000000e+00
   outer loop
     vertex  4.911492e+01  1.980000e+01 -7.715968e+01
     vertex  4.788675e+01  1.980000e+01 -8.000000e+01
     vertex  4.644338e+01  1.980000e+01 -7.750000e+01
   endloop
 endfacet
 facet normal  0.000000e+00  1.000000e+00  0.000000e+00
   outer loop
     vertex  4.911492e+01  1.980000e+01 -7.715968e+01
     vertex  4.967508e+01  1.980000e+01 -7.822698e+01
     vertex  4.788675e+01  1.980000e+01 -8.000000e+01
   endloop
 endfacet
 facet normal  0.000000e+00  1.000000e+00  0.000000e+00
   outer loop
     vertex  4.831561e+01  1.980000e+01 -7.625745e+01
     vertex  4.911492e+01  1.980000e+01 -7.715968e+01
     vertex  4.644338e+01  1.980000e+01 -7.750000e+01
   endloop
 endfacet
 facet normal  0.000000e+00  1.000000e+00  0.000000e+00
   outer loop
     vertex  4.831561e+01  1.980000e+01 -7.625745e+01
     vertex  4.644338e+01  1.980000e+01 -7.750000e+01
     vertex  4.732362e+01  1.980000e+01 -7.557272e+01
   endloop
 endfacet
 facet normal -1.205367e-01  0.000000e+00 -9.927089e-01
   outer loop
     vertex  4.380342e+01  1.980000e+01 -8.485471e+01
     vertex  4.500000e+01  1.980000e+01 -8.500000e+01
     vertex  4.500000e+01  1.380000e+01 -8.500000e+01
   endloop
 endfacet
 facet normal -1.205367e-01 -0.000000e+00 -9.927089e-01
   outer loop
     vertex  4.380342e+01  1.980000e+01 -8.485471e+01
     vertex  4.500000e+01  1.380000e+01 -8.500000e+01
     vertex  4.380342e+01  1.380000e+01 -8.485471e+01
   endloop
 endfacet
 facet normal -3.546049e-01 -0.000000e+00 -9.350162e-01
   outer loop
     vertex  4.267638e+01  1.980000e+01 -8.442728e+01
     vertex  4.380342e+01  1.380000e+01 -8.485471e+01
     vertex  4.267638e+01  1.380000e+01 -8.442728e+01
   endloop
 endfacet
 facet normal -3.546049e-01  0.000000e+00 -9.350162e-01
   outer loop
     vertex  4.267638e+01  1.980000e+01 -8.442728e+01
     vertex  4.380342e+01  1.980000e+01 -8.485471e+01
     vertex  4.380342e+01  1.380000e+01 -8.485471e+01
   endloop
 endfacet
 facet normal -5.680647e-01  6.727238e-16 -8.229839e-01
   outer loop
     vertex  4.168439e+01  1.980000e+01 -8.374255e+01
     vertex  4.267638e+01  1.380000e+01 -8.442728e+01
     vertex  4.168439e+01  1.380000e+01 -8.374255e+01
   endloop
 endfacet
 facet normal -5.680647e-01  0.000000e+00 -8.229839e-01
   outer loop
     vertex  4.168439e+01  1.980000e+01 -8.374255e+01
     vertex  4.267638e+01  1.980000e+01 -8.442728e+01
     vertex  4.267638e+01  1.380000e+01 -8.442728e+01
   endloop
 endfacet
 facet normal -7.485107e-01  8.864148e-16 -6.631227e-01
   outer loop
     vertex  4.088508e+01  1.980000e+01 -8.284032e+01
     vertex  4.168439e+01  1.380000e+01 -8.374255e+01
     vertex  4.088508e+01  1.380000e+01 -8.284032e+01
   endloop
 endfacet
 facet normal -7.485107e-01  8.903643e-16 -6.631227e-01
   outer loop
     vertex  4.088508e+01  1.980000e+01 -8.284032e+01
     vertex  4.168439e+01  1.980000e+01 -8.374255e+01
     vertex  4.168439e+01  1.380000e+01 -8.374255e+01
   endloop
 endfacet
 facet normal -8.854560e-01 -1.100686e-15 -4.647232e-01
   outer loop
     vertex  4.032492e+01  1.980000e+01 -8.177302e+01
     vertex  4.088508e+01  1.380000e+01 -8.284032e+01
     vertex  4.032492e+01  1.380000e+01 -8.177302e+01
   endloop
 endfacet
 facet normal -8.854560e-01  1.043875e-15 -4.647232e-01
   outer loop
     vertex  4.032492e+01  1.980000e+01 -8.177302e+01
     vertex  4.088508e+01  1.980000e+01 -8.284032e+01
     vertex  4.088508e+01  1.380000e+01 -8.284032e+01
   endloop
 endfacet
 facet normal -9.709418e-01 -0.000000e+00 -2.393157e-01
   outer loop
     vertex  4.003646e+01  1.980000e+01 -8.060268e+01
     vertex  4.032492e+01  1.380000e+01 -8.177302e+01
     vertex  4.003646e+01  1.380000e+01 -8.060268e+01
   endloop
 endfacet
 facet normal -9.709418e-01 -5.679910e-16 -2.393157e-01
   outer loop
     vertex  4.003646e+01  1.980000e+01 -8.060268e+01
     vertex  4.032492e+01  1.980000e+01 -8.177302e+01
     vertex  4.032492e+01  1.380000e+01 -8.177302e+01
   endloop
 endfacet
 facet normal -1.000000e+00  2.792350e-29  1.178965e-14
   outer loop
     vertex  4.003646e+01  1.980000e+01 -7.939732e+01
     vertex  4.003646e+01  1.380000e+01 -8.060268e+01
     vertex  4.003646e+01  1.380000e+01 -7.939732e+01
   endloop
 endfacet
 facet normal -1.000000e+00  0.000000e+00  1.178965e-14
   outer loop
     vertex  4.003646e+01  1.980000e+01 -7.939732e+01
     vertex  4.003646e+01  1.980000e+01 -8.060268e+01
     vertex  4.003646e+01  1.380000e+01 -8.060268e+01
   endloop
 endfacet
 facet normal -9.709418e-01 -1.149826e-15  2.393157e-01
   outer loop
     vertex  4.032492e+01  1.980000e+01 -7.822698e+01
     vertex  4.003646e+01  1.380000e+01 -7.939732e+01
     vertex  4.032492e+01  1.380000e+01 -7.822698e+01
   endloop
 endfacet
 facet normal -9.709418e-01  5.679910e-16  2.393157e-01
   outer loop
     vertex  4.032492e+01  1.980000e+01 -7.822698e+01
     vertex  4.003646e+01  1.980000e+01 -7.939732e+01
     vertex  4.003646e+01  1.380000e+01 -7.939732e+01
   endloop
 endfacet
 facet normal -8.854560e-01  5.209500e-17  4.647232e-01
   outer loop
     vertex  4.088508e+01  1.980000e+01 -7.715968e+01
     vertex  4.032492e+01  1.380000e+01 -7.822698e+01
     vertex  4.088508e+01  1.380000e+01 -7.715968e+01
   endloop
 endfacet
 facet normal -8.854560e-01 -1.043875e-15  4.647232e-01
   outer loop
     vertex  4.088508e+01  1.980000e+01 -7.715968e+01
     vertex  4.032492e+01  1.980000e+01 -7.822698e+01
     vertex  4.032492e+01  1.380000e+01 -7.822698e+01
   endloop
 endfacet
 facet normal -7.485107e-01  2.254765e-15  6.631227e-01
   outer loop
     vertex  4.168439e+01  1.980000e+01 -7.625745e+01
     vertex  4.088508e+01  1.380000e+01 -7.715968e+01
     vertex  4.168439e+01  1.380000e+01 -7.625745e+01
   endloop
 endfacet
 facet normal -7.485107e-01  6.907999e-16  6.631227e-01
   outer loop
     vertex  4.168439e+01  1.980000e+01 -7.625745e+01
     vertex  4.088508e+01  1.980000e+01 -7.715968e+01
     vertex  4.088508e+01  1.380000e+01 -7.715968e+01
   endloop
 endfacet
 facet normal -5.680647e-01 -6.727238e-16  8.229839e-01
   outer loop
     vertex  4.267638e+01  1.980000e+01 -7.557272e+01
     vertex  4.168439e+01  1.380000e+01 -7.625745e+01
     vertex  4.267638e+01  1.380000e+01 -7.557272e+01
   endloop
 endfacet
 facet normal -5.680647e-01  3.223733e-15  8.229839e-01
   outer loop
     vertex  4.267638e+01  1.980000e+01 -7.557272e+01
     vertex  4.168439e+01  1.980000e+01 -7.625745e+01
     vertex  4.168439e+01  1.380000e+01 -7.625745e+01
   endloop
 endfacet
 facet normal -3.546049e-01 -8.398731e-16  9.350162e-01
   outer loop
     vertex  4.380342e+01  1.980000e+01 -7.514529e+01
     vertex  4.267638e+01  1.380000e+01 -7.557272e+01
     vertex  4.380342e+01  1.380000e+01 -7.514529e+01
   endloop
 endfacet
 facet normal -3.546049e-01 -4.144799e-16  9.350162e-01
   outer loop
     vertex  4.380342e+01  1.980000e+01 -7.514529e+01
     vertex  4.267638e+01  1.980000e+01 -7.557272e+01
     vertex  4.267638e+01  1.380000e+01 -7.557272e+01
   endloop
 endfacet
 facet normal -1.205367e-01  0.000000e+00  9.927089e-01
   outer loop
     vertex  4.500000e+01  1.980000e+01 -7.500000e+01
     vertex  4.380342e+01  1.380000e+01 -7.514529e+01
     vertex  4.500000e+01  1.380000e+01 -7.500000e+01
   endloop
 endfacet
 facet normal -1.205367e-01 -2.839955e-16  9.927089e-01
   outer loop
     vertex  4.500000e+01  1.980000e+01 -7.500000e+01
     vertex  4.380342e+01  1.980000e+01 -7.514529e+01
     vertex  4.380342e+01  1.380000e+01 -7.514529e+01
   endloop
 endfacet
 facet normal  0.000000e+00 -1.000000e+00  0.000000e+00
   outer loop
     vertex  4.301063e+01  1.380000e+01 -8.224553e+01
     vertex  4.088508e+01  1.380000e+01 -8.284032e+01
     vertex  4.168439e+01  1.380000e+01 -8.374255e+01
   endloop
 endfacet
 facet normal  0.000000e+00 -1.000000e+00  0.000000e+00
   outer loop
     vertex  4.253105e+01  1.380000e+01 -8.170419e+01
     vertex  4.032492e+01  1.380000e+01 -8.177302e+01
     vertex  4.088508e+01  1.380000e+01 -8.284032e+01
   endloop
 endfacet
 facet normal  0.000000e+00 -1.000000e+00 -0.000000e+00
   outer loop
     vertex  4.253105e+01  1.380000e+01 -8.170419e+01
     vertex  4.088508e+01  1.380000e+01 -8.284032e+01
     vertex  4.301063e+01  1.380000e+01 -8.224553e+01
   endloop
 endfacet
 facet normal  0.000000e+00 -1.000000e+00  0.000000e+00
   outer loop
     vertex  4.360583e+01  1.380000e+01 -8.265637e+01
     vertex  4.168439e+01  1.380000e+01 -8.374255e+01
     vertex  4.267638e+01  1.380000e+01 -8.442728e+01
   endloop
 endfacet
 facet normal -0.000000e+00 -1.000000e+00  0.000000e+00
   outer loop
     vertex  4.360583e+01  1.380000e+01 -8.265637e+01
     vertex  4.301063e+01  1.380000e+01 -8.224553e+01
     vertex  4.168439e+01  1.380000e+01 -8.374255e+01
   endloop
 endfacet
 facet normal -0.000000e+00 -1.000000e+00  0.000000e+00
   outer loop
     vertex  4.219495e+01  1.380000e+01 -8.106381e+01
     vertex  4.003646e+01  1.380000e+01 -8.060268e+01
     vertex  4.032492e+01  1.380000e+01 -8.177302e+01
   endloop
 endfacet
 facet normal  0.000000e+00 -1.000000e+00 -0.000000e+00
   outer loop
     vertex  4.219495e+01  1.380000e+01 -8.106381e+01
     vertex  4.032492e+01  1.380000e+01 -8.177302e+01
     vertex  4.253105e+01  1.380000e+01 -8.170419e+01
   endloop
 endfacet
 facet normal  0.000000e+00 -1.000000e+00  0.000000e+00
   outer loop
     vertex  4.428205e+01  1.380000e+01 -8.291283e+01
     vertex  4.267638e+01  1.380000e+01 -8.442728e+01
     vertex  4.380342e+01  1.380000e+01 -8.485471e+01
   endloop
 endfacet
 facet normal -0.000000e+00 -1.000000e+00  0.000000e+00
   outer loop
     vertex  4.428205e+01  1.380000e+01 -8.291283e+01
     vertex  4.360583e+01  1.380000e+01 -8.265637e+01
     vertex  4.267638e+01  1.380000e+01 -8.442728e+01
   endloop
 endfacet
 facet normal -0.000000e+00 -1.000000e+00  0.000000e+00
   outer loop
     vertex  4.202187e+01  1.380000e+01 -8.036161e+01
     vertex  4.003646e+01  1.380000e+01 -7.939732e+01
     vertex  4.003646e+01  1.380000e+01 -8.060268e+01
   endloop
 endfacet
 facet normal  0.000000e+00 -1.000000e+00 -0.000000e+00
   outer loop
     vertex  4.202187e+01  1.380000e+01 -8.036161e+01
     vertex  4.003646e+01  1.380000e+01 -8.060268e+01
     vertex  4.219495e+01  1.380000e+01 -8.106381e+01
   endloop
 endfacet
 facet normal  0.000000e+00 -1.000000e+00  0.000000e+00
   outer loop
     vertex  4.500000e+01  1.380000e+01 -8.300000e+01
     vertex  4.380342e+01  1.380000e+01 -8.485471e+01
     vertex  4.500000e+01  1.380000e+01 -8.500000e+01
   endloop
 endfacet
 facet normal -0.000000e+00 -1.000000e+00  0.000000e+00
   outer loop
     vertex  4.500000e+01  1.380000e+01 -8.300000e+01
     vertex  4.428205e+01  1.380000e+01 -8.291283e+01
     vertex  4.380342e+01  1.380000e+01 -8.485471e+01
   endloop
 endfacet
 facet normal  0.000000e+00 -1.000000e+00  0.000000e+00
   outer loop
     vertex  4.202187e+01  1.380000e+01 -7.963839e+01
     vertex  4.032492e+01  1.380000e+01 -7.822698e+01
     vertex  4.003646e+01  1.380000e+01 -7.939732e+01
   endloop
 endfacet
 facet normal -0.000000e+00 -1.000000e+00 -0.000000e+00
   outer loop
     vertex  4.202187e+01  1.380000e+01 -7.963839e+01
     vertex  4.003646e+01  1.380000e+01 -7.939732e+01
     vertex  4.202187e+01  1.380000e+01 -8.036161e+01
   endloop
 endfacet
 facet normal  0.000000e+00 -1.000000e+00 -0.000000e+00
   outer loop
     vertex  4.571795e+01  1.380000e+01 -8.291283e+01
     vertex  4.500000e+01  1.380000e+01 -8.500000e+01
     vertex  4.619658e+01  1.380000e+01 -8.485471e+01
   endloop
 endfacet
 facet normal  0.000000e+00 -1.000000e+00  0.000000e+00
   outer loop
     vertex  4.571795e+01  1.380000e+01 -8.291283e+01
     vertex  4.500000e+01  1.380000e+01 -8.300000e+01
     vertex  4.500000e+01  1.380000e+01 -8.500000e+01
   endloop
 endfacet
 facet normal -0.000000e+00 -1.000000e+00  0.000000e+00
   outer loop
     vertex  4.732362e+01  1.380000e+01 -8.442728e+01
     vertex  4.571795e+01  1.380000e+01 -8.291283e+01
     vertex  4.619658e+01  1.380000e+01 -8.485471e+01
   endloop
 endfacet
 facet normal -0.000000e+00 -1.000000e+00  0.000000e+00
   outer loop
     vertex  4.219495e+01  1.380000e+01 -7.893619e+01
     vertex  4.032492e+01  1.380000e+01 -7.822698e+01
     vertex  4.202187e+01  1.380000e+01 -7.963839e+01
   endloop
 endfacet
 facet normal  0.000000e+00 -1.000000e+00 -0.000000e+00
   outer loop
     vertex  4.639417e+01  1.380000e+01 -8.265637e+01
     vertex  4.571795e+01  1.380000e+01 -8.291283e+01
     vertex  4.732362e+01  1.380000e+01 -8.442728e+01
   endloop
 endfacet
 facet normal  0.000000e+00 -1.000000e+00  0.000000e+00
   outer loop
     vertex  4.253105e+01  1.380000e+01 -7.829581e+01
     vertex  4.088508e+01  1.380000e+01 -7.715968e+01
     vertex  4.032492e+01  1.380000e+01 -7.822698e+01
   endloop
 endfacet
 facet normal -0.000000e+00 -1.000000e+00  0.000000e+00
   outer loop
     vertex  4.253105e+01  1.380000e+01 -7.829581e+01
     vertex  4.032492e+01  1.380000e+01 -7.822698e+01
     vertex  4.219495e+01  1.380000e+01 -7.893619e+01
   endloop
 endfacet
 facet normal  0.000000e+00 -1.000000e+00 -0.000000e+00
   outer loop
     vertex  4.698937e+01  1.380000e+01 -8.224553e+01
     vertex  4.639417e+01  1.380000e+01 -8.265637e+01
     vertex  4.732362e+01  1.380000e+01 -8.442728e+01
   endloop
 endfacet
 facet normal  0.000000e+00 -1.000000e+00  0.000000e+00
   outer loop
     vertex  4.698937e+01  1.380000e+01 -8.224553e+01
     vertex  4.732362e+01  1.380000e+01 -8.442728e+01
     vertex  4.831561e+01  1.380000e+01 -8.374255e+01
   endloop
 endfacet
 facet normal  0.000000e+00 -1.000000e+00  0.000000e+00
   outer loop
     vertex  4.168439e+01  1.380000e+01 -7.625745e+01
     vertex  4.253105e+01  1.380000e+01 -7.829581e+01
     vertex  4.301063e+01  1.380000e+01 -7.775447e+01
   endloop
 endfacet
 facet normal  0.000000e+00 -1.000000e+00 -0.000000e+00
   outer loop
     vertex  4.168439e+01  1.380000e+01 -7.625745e+01
     vertex  4.088508e+01  1.380000e+01 -7.715968e+01
     vertex  4.253105e+01  1.380000e+01 -7.829581e+01
   endloop
 endfacet
 facet normal -0.000000e+00 -1.000000e+00  0.000000e+00
   outer loop
     vertex  4.360583e+01  1.380000e+01 -7.734363e+01
     vertex  4.168439e+01  1.380000e+01 -7.625745e+01
     vertex  4.301063e+01  1.380000e+01 -7.775447e+01
   endloop
 endfacet
 facet normal -0.000000e+00 -1.000000e+00  0.000000e+00
   outer loop
     vertex  4.911492e+01  1.380000e+01 -8.284032e+01
     vertex  4.698937e+01  1.380000e+01 -8.224553e+01
     vertex  4.831561e+01  1.380000e+01 -8.374255e+01
   endloop
 endfacet
 facet normal  0.000000e+00 -1.000000e+00  0.000000e+00
   outer loop
     vertex  4.911492e+01  1.380000e+01 -8.284032e+01
     vertex  4.746895e+01  1.380000e+01 -8.170419e+01
     vertex  4.698937e+01  1.380000e+01 -8.224553e+01
   endloop
 endfacet
 facet normal  0.000000e+00 -1.000000e+00 -0.000000e+00
   outer loop
     vertex  4.267638e+01  1.380000e+01 -7.557272e+01
     vertex  4.168439e+01  1.380000e+01 -7.625745e+01
     vertex  4.360583e+01  1.380000e+01 -7.734363e+01
   endloop
 endfacet
 facet normal -0.000000e+00 -1.000000e+00  0.000000e+00
   outer loop
     vertex  4.967508e+01  1.380000e+01 -8.177302e+01
     vertex  4.746895e+01  1.380000e+01 -8.170419e+01
     vertex  4.911492e+01  1.380000e+01 -8.284032e+01
   endloop
 endfacet
 facet normal  0.000000e+00 -1.000000e+00  0.000000e+00
   outer loop
     vertex  4.967508e+01  1.380000e+01 -8.177302e+01
     vertex  4.780505e+01  1.380000e+01 -8.106381e+01
     vertex  4.746895e+01  1.380000e+01 -8.170419e+01
   endloop
 endfacet
 facet normal  0.000000e+00 -1.000000e+00  0.000000e+00
   outer loop
     vertex  4.380342e+01  1.380000e+01 -7.514529e+01
     vertex  4.267638e+01  1.380000e+01 -7.557272e+01
     vertex  4.360583e+01  1.380000e+01 -7.734363e+01
   endloop
 endfacet
 facet normal  0.000000e+00 -1.000000e+00  0.000000e+00
   outer loop
     vertex  4.380342e+01  1.380000e+01 -7.514529e+01
     vertex  4.428205e+01  1.380000e+01 -7.708717e+01
     vertex  4.500000e+01  1.380000e+01 -7.700000e+01
   endloop
 endfacet
 facet normal  0.000000e+00 -1.000000e+00 -0.000000e+00
   outer loop
     vertex  4.380342e+01  1.380000e+01 -7.514529e+01
     vertex  4.360583e+01  1.380000e+01 -7.734363e+01
     vertex  4.428205e+01  1.380000e+01 -7.708717e+01
   endloop
 endfacet
 facet normal  0.000000e+00 -1.000000e+00  0.000000e+00
   outer loop
     vertex  4.996354e+01  1.380000e+01 -8.060268e+01
     vertex  4.780505e+01  1.380000e+01 -8.106381e+01
     vertex  4.967508e+01  1.380000e+01 -8.177302e+01
   endloop
 endfacet
 facet normal -0.000000e+00 -1.000000e+00  0.000000e+00
   outer loop
     vertex  4.996354e+01  1.380000e+01 -8.060268e+01
     vertex  4.797813e+01  1.380000e+01 -8.036161e+01
     vertex  4.780505e+01  1.380000e+01 -8.106381e+01
   endloop
 endfacet
 facet normal  0.000000e+00 -1.000000e+00  0.000000e+00
   outer loop
     vertex  4.996354e+01  1.380000e+01 -8.060268e+01
     vertex  4.797813e+01  1.380000e+01 -7.963839e+01
     vertex  4.797813e+01  1.380000e+01 -8.036161e+01
   endloop
 endfacet
 facet normal  0.000000e+00 -1.000000e+00  0.000000e+00
   outer loop
     vertex  4.500000e+01  1.380000e+01 -7.500000e+01
     vertex  4.380342e+01  1.380000e+01 -7.514529e+01
     vertex  4.500000e+01  1.380000e+01 -7.700000e+01
   endloop
 endfacet
 facet normal  0.000000e+00 -1.000000e+00  0.000000e+00
   outer loop
     vertex  4.996354e+01  1.380000e+01 -7.939732e+01
     vertex  4.797813e+01  1.380000e+01 -7.963839e+01
     vertex  4.996354e+01  1.380000e+01 -8.060268e+01
   endloop
 endfacet
 facet normal -0.000000e+00 -1.000000e+00  0.000000e+00
   outer loop
     vertex  4.619658e+01  1.380000e+01 -7.514529e+01
     vertex  4.500000e+01  1.380000e+01 -7.500000e+01
     vertex  4.500000e+01  1.380000e+01 -7.700000e+01
   endloop
 endfacet
 facet normal  0.000000e+00 -1.000000e+00 -0.000000e+00
   outer loop
     vertex  4.619658e+01  1.380000e+01 -7.514529e+01
     vertex  4.571795e+01  1.380000e+01 -7.708717e+01
     vertex  4.639417e+01  1.380000e+01 -7.734363e+01
   endloop
 endfacet
 facet normal  0.000000e+00 -1.000000e+00  0.000000e+00
   outer loop
     vertex  4.619658e+01  1.380000e+01 -7.514529e+01
     vertex  4.500000e+01  1.380000e+01 -7.700000e+01
     vertex  4.571795e+01  1.380000e+01 -7.708717e+01
   endloop
 endfacet
 facet normal  0.000000e+00 -1.000000e+00  0.000000e+00
   outer loop
     vertex  4.967508e+01  1.380000e+01 -7.822698e+01
     vertex  4.780505e+01  1.380000e+01 -7.893619e+01
     vertex  4.797813e+01  1.380000e+01 -7.963839e+01
   endloop
 endfacet
 facet normal  0.000000e+00 -1.000000e+00 -0.000000e+00
   outer loop
     vertex  4.967508e+01  1.380000e+01 -7.822698e+01
     vertex  4.797813e+01  1.380000e+01 -7.963839e+01
     vertex  4.996354e+01  1.380000e+01 -7.939732e+01
   endloop
 endfacet
 facet normal -0.000000e+00 -1.000000e+00  0.000000e+00
   outer loop
     vertex  4.732362e+01  1.380000e+01 -7.557272e+01
     vertex  4.619658e+01  1.380000e+01 -7.514529e+01
     vertex  4.639417e+01  1.380000e+01 -7.734363e+01
   endloop
 endfacet
 facet normal  0.000000e+00 -1.000000e+00  0.000000e+00
   outer loop
     vertex  4.911492e+01  1.380000e+01 -7.715968e+01
     vertex  4.746895e+01  1.380000e+01 -7.829581e+01
     vertex  4.780505e+01  1.380000e+01 -7.893619e+01
   endloop
 endfacet
 facet normal  0.000000e+00 -1.000000e+00 -0.000000e+00
   outer loop
     vertex  4.911492e+01  1.380000e+01 -7.715968e+01
     vertex  4.780505e+01  1.380000e+01 -7.893619e+01
     vertex  4.967508e+01  1.380000e+01 -7.822698e+01
   endloop
 endfacet
 facet normal  0.000000e+00 -1.000000e+00  0.000000e+00
   outer loop
     vertex  4.831561e+01  1.380000e+01 -7.625745e+01
     vertex  4.698937e+01  1.380000e+01 -7.775447e+01
     vertex  4.746895e+01  1.380000e+01 -7.829581e+01
   endloop
 endfacet
 facet normal  0.000000e+00 -1.000000e+00  0.000000e+00
   outer loop
     vertex  4.831561e+01  1.380000e+01 -7.625745e+01
     vertex  4.639417e+01  1.380000e+01 -7.734363e+01
     vertex  4.698937e+01  1.380000e+01 -7.775447e+01
   endloop
 endfacet
 facet normal  0.000000e+00 -1.000000e+00 -0.000000e+00
   outer loop
     vertex  4.831561e+01  1.380000e+01 -7.625745e+01
     vertex  4.746895e+01  1.380000e+01 -7.829581e+01
     vertex  4.911492e+01  1.380000e+01 -7.715968e+01
   endloop
 endfacet
 facet normal -0.000000e+00 -1.000000e+00  0.000000e+00
   outer loop
     vertex  4.831561e+01  1.380000e+01 -7.625745e+01
     vertex  4.732362e+01  1.380000e+01 -7.557272e+01
     vertex  4.639417e+01  1.380000e+01 -7.734363e+01
   endloop
 endfacet
 facet normal -1.205367e-01 -0.000000e+00 -9.927089e-01
   outer loop
     vertex  4.500000e+01  1.380000e+01 -8.300000e+01
     vertex  4.500000e+01  1.800000e+00 -8.300000e+01
     vertex  4.428205e+01  1.800000e+00 -8.291283e+01
   endloop
 endfacet
 facet normal -3.546049e-01 -2.099683e-16 -9.350162e-01
   outer loop
     vertex  4.428205e+01  1.380000e+01 -8.291283e+01
     vertex  4.428205e+01  1.800000e+00 -8.291283e+01
     vertex  4.360583e+01  1.800000e+00 -8.265637e+01
   endloop
 endfacet
 facet normal -1.205367e-01 -7.137205e-17 -9.927089e-01
   outer loop
     vertex  4.428205e+01  1.380000e+01 -8.291283e+01
     vertex  4.500000e+01  1.380000e+01 -8.300000e+01
     vertex  4.428205e+01  1.800000e+00 -8.291283e+01
   endloop
 endfacet
 facet normal -5.680647e-01 -3.363619e-16 -8.229839e-01
   outer loop
     vertex  4.360583e+01  1.380000e+01 -8.265637e+01
     vertex  4.360583e+01  1.800000e+00 -8.265637e+01
     vertex  4.301063e+01  1.800000e+00 -8.224553e+01
   endloop
 endfacet
 facet normal -3.546049e-01 -2.099683e-16 -9.350162e-01
   outer loop
     vertex  4.360583e+01  1.380000e+01 -8.265637e+01
     vertex  4.428205e+01  1.380000e+01 -8.291283e+01
     vertex  4.360583e+01  1.800000e+00 -8.265637e+01
   endloop
 endfacet
 facet normal -7.485107e-01 -4.432074e-16 -6.631227e-01
   outer loop
     vertex  4.301063e+01  1.380000e+01 -8.224553e+01
     vertex  4.301063e+01  1.800000e+00 -8.224553e+01
     vertex  4.253105e+01  1.800000e+00 -8.170419e+01
   endloop
 endfacet
 facet normal -5.680647e-01 -3.363619e-16 -8.229839e-01
   outer loop
     vertex  4.301063e+01  1.380000e+01 -8.224553e+01
     vertex  4.360583e+01  1.380000e+01 -8.265637e+01
     vertex  4.301063e+01  1.800000e+00 -8.224553e+01
   endloop
 endfacet
 facet normal -8.854560e-01  5.503428e-16 -4.647232e-01
   outer loop
     vertex  4.253105e+01  1.380000e+01 -8.170419e+01
     vertex  4.253105e+01  1.800000e+00 -8.170419e+01
     vertex  4.219495e+01  1.800000e+00 -8.106381e+01
   endloop
 endfacet
 facet normal -7.485107e-01  7.852950e-16 -6.631227e-01
   outer loop
     vertex  4.253105e+01  1.380000e+01 -8.170419e+01
     vertex  4.301063e+01  1.380000e+01 -8.224553e+01
     vertex  4.253105e+01  1.800000e+00 -8.170419e+01
   endloop
 endfacet
 facet normal -9.709418e-01 -5.749130e-16 -2.393157e-01
   outer loop
     vertex  4.219495e+01  1.380000e+01 -8.106381e+01
     vertex  4.219495e+01  1.800000e+00 -8.106381e+01
     vertex  4.202187e+01  1.800000e+00 -8.036161e+01
   endloop
 endfacet
 facet normal -8.854560e-01 -5.242953e-16 -4.647232e-01
   outer loop
     vertex  4.219495e+01  1.380000e+01 -8.106381e+01
     vertex  4.253105e+01  1.380000e+01 -8.170419e+01
     vertex  4.219495e+01  1.800000e+00 -8.106381e+01
   endloop
 endfacet
 facet normal -1.000000e+00  0.000000e+00  0.000000e+00
   outer loop
     vertex  4.202187e+01  1.380000e+01 -8.036161e+01
     vertex  4.202187e+01  1.800000e+00 -8.036161e+01
     vertex  4.202187e+01  1.800000e+00 -7.963839e+01
   endloop
 endfacet
 facet normal -9.709418e-01 -0.000000e+00 -2.393157e-01
   outer loop
     vertex  4.202187e+01  1.380000e+01 -8.036161e+01
     vertex  4.219495e+01  1.380000e+01 -8.106381e+01
     vertex  4.202187e+01  1.800000e+00 -8.036161e+01
   endloop
 endfacet
 facet normal -9.709418e-01  0.000000e+00  2.393157e-01
   outer loop
     vertex  4.202187e+01  1.380000e+01 -7.963839e+01
     vertex  4.202187e+01  1.800000e+00 -7.963839e+01
     vertex  4.219495e+01  1.800000e+00 -7.893619e+01
   endloop
 endfacet
 facet normal -1.000000e+00 -0.000000e+00 -0.000000e+00
   outer loop
     vertex  4.202187e+01  1.380000e+01 -7.963839e+01
     vertex  4.202187e+01  1.380000e+01 -8.036161e+01
     vertex  4.202187e+01  1.800000e+00 -7.963839e+01
   endloop
 endfacet
 facet normal -8.854560e-01  5.242953e-16  4.647232e-01
   outer loop
     vertex  4.219495e+01  1.380000e+01 -7.893619e+01
     vertex  4.219495e+01  1.800000e+00 -7.893619e+01
     vertex  4.253105e+01  1.800000e+00 -7.829581e+01
   endloop
 endfacet
 facet normal -9.709418e-01  5.749130e-16  2.393157e-01
   outer loop
     vertex  4.219495e+01  1.380000e+01 -7.893619e+01
     vertex  4.202187e+01  1.380000e+01 -7.963839e+01
     vertex  4.219495e+01  1.800000e+00 -7.893619e+01
   endloop
 endfacet
 facet normal -8.854560e-01 -5.503428e-16  4.647232e-01
   outer loop
     vertex  4.253105e+01  1.380000e+01 -7.829581e+01
     vertex  4.219495e+01  1.380000e+01 -7.893619e+01
     vertex  4.253105e+01  1.800000e+00 -7.829581e+01
   endloop
 endfacet
 facet normal -7.485107e-01  4.432074e-16  6.631227e-01
   outer loop
     vertex  4.301063e+01  1.380000e+01 -7.775447e+01
     vertex  4.253105e+01  1.800000e+00 -7.829581e+01
     vertex  4.301063e+01  1.800000e+00 -7.775447e+01
   endloop
 endfacet
 facet normal -5.680647e-01  3.363619e-16  8.229839e-01
   outer loop
     vertex  4.301063e+01  1.380000e+01 -7.775447e+01
     vertex  4.301063e+01  1.800000e+00 -7.775447e+01
     vertex  4.360583e+01  1.800000e+00 -7.734363e+01
   endloop
 endfacet
 facet normal -7.485107e-01 -7.867443e-16  6.631227e-01
   outer loop
     vertex  4.301063e+01  1.380000e+01 -7.775447e+01
     vertex  4.253105e+01  1.380000e+01 -7.829581e+01
     vertex  4.253105e+01  1.800000e+00 -7.829581e+01
   endloop
 endfacet
 facet normal -3.546049e-01  2.099683e-16  9.350162e-01
   outer loop
     vertex  4.360583e+01  1.380000e+01 -7.734363e+01
     vertex  4.360583e+01  1.800000e+00 -7.734363e+01
     vertex  4.428205e+01  1.800000e+00 -7.708717e+01
   endloop
 endfacet
 facet normal -5.680647e-01  3.363619e-16  8.229839e-01
   outer loop
     vertex  4.360583e+01  1.380000e+01 -7.734363e+01
     vertex  4.301063e+01  1.380000e+01 -7.775447e+01
     vertex  4.360583e+01  1.800000e+00 -7.734363e+01
   endloop
 endfacet
 facet normal -1.205367e-01  7.137205e-17  9.927089e-01
   outer loop
     vertex  4.428205e+01  1.380000e+01 -7.708717e+01
     vertex  4.428205e+01  1.800000e+00 -7.708717e+01
     vertex  4.500000e+01  1.800000e+00 -7.700000e+01
   endloop
 endfacet
 facet normal -3.546049e-01  2.099683e-16  9.350162e-01
   outer loop
     vertex  4.428205e+01  1.380000e+01 -7.708717e+01
     vertex  4.360583e+01  1.380000e+01 -7.734363e+01
     vertex  4.428205e+01  1.800000e+00 -7.708717e+01
   endloop
 endfacet
 facet normal -1.205367e-01  0.000000e+00  9.927089e-01
   outer loop
     vertex  4.500000e+01  1.380000e+01 -7.700000e+01
     vertex  4.428205e+01  1.380000e+01 -7.708717e+01
     vertex  4.500000e+01  1.800000e+00 -7.700000e+01
   endloop
 endfacet
 facet normal  0.000000e+00 -1.000000e+00  0.000000e+00
   outer loop
     vertex  4.202187e+01  1.800000e+00 -7.963839e+01
     vertex  4.301063e+01  1.800000e+00 -8.224553e+01
     vertex  4.360583e+01  1.800000e+00 -8.265637e+01
   endloop
 endfacet
 facet normal  0.000000e+00 -1.000000e+00  0.000000e+00
   outer loop
     vertex  4.202187e+01  1.800000e+00 -7.963839e+01
     vertex  4.253105e+01  1.800000e+00 -8.170419e+01
     vertex  4.301063e+01  1.800000e+00 -8.224553e+01
   endloop
 endfacet
 facet normal  0.000000e+00 -1.000000e+00  0.000000e+00
   outer loop
     vertex  4.202187e+01  1.800000e+00 -7.963839e+01
     vertex  4.219495e+01  1.800000e+00 -8.106381e+01
     vertex  4.253105e+01  1.800000e+00 -8.170419e+01
   endloop
 endfacet
 facet normal  0.000000e+00 -1.000000e+00  0.000000e+00
   outer loop
     vertex  4.202187e+01  1.800000e+00 -7.963839e+01
     vertex  4.202187e+01  1.800000e+00 -8.036161e+01
     vertex  4.219495e+01  1.800000e+00 -8.106381e+01
   endloop
 endfacet
 facet normal -0.000000e+00 -1.000000e+00  0.000000e+00
   outer loop
     vertex  4.571795e+01  1.800000e+00 -8.291283e+01
     vertex  4.428205e+01  1.800000e+00 -8.291283e+01
     vertex  4.500000e+01  1.800000e+00 -8.300000e+01
   endloop
 endfacet
 facet normal -0.000000e+00 -1.000000e+00  0.000000e+00
   outer loop
     vertex  4.639417e+01  1.800000e+00 -8.265637e+01
     vertex  4.360583e+01  1.800000e+00 -8.265637e+01
     vertex  4.428205e+01  1.800000e+00 -8.291283e+01
   endloop
 endfacet
 facet normal  0.000000e+00 -1.000000e+00  0.000000e+00
   outer loop
     vertex  4.639417e+01  1.800000e+00 -8.265637e+01
     vertex  4.428205e+01  1.800000e+00 -8.291283e+01
     vertex  4.571795e+01  1.800000e+00 -8.291283e+01
   endloop
 endfacet
 facet normal  0.000000e+00 -1.000000e+00  0.000000e+00
   outer loop
     vertex  4.301063e+01  1.800000e+00 -7.775447e+01
     vertex  4.219495e+01  1.800000e+00 -7.893619e+01
     vertex  4.202187e+01  1.800000e+00 -7.963839e+01
   endloop
 endfacet
 facet normal  0.000000e+00 -1.000000e+00  0.000000e+00
   outer loop
     vertex  4.301063e+01  1.800000e+00 -7.775447e+01
     vertex  4.253105e+01  1.800000e+00 -7.829581e+01
     vertex  4.219495e+01  1.800000e+00 -7.893619e+01
   endloop
 endfacet
 facet normal  0.000000e+00 -1.000000e+00  0.000000e+00
   outer loop
     vertex  4.746895e+01  1.800000e+00 -8.170419e+01
     vertex  4.639417e+01  1.800000e+00 -8.265637e+01
     vertex  4.698937e+01  1.800000e+00 -8.224553e+01
   endloop
 endfacet
 facet normal  0.000000e+00 -1.000000e+00  0.000000e+00
   outer loop
     vertex  4.360583e+01  1.800000e+00 -7.734363e+01
     vertex  4.301063e+01  1.800000e+00 -7.775447e+01
     vertex  4.202187e+01  1.800000e+00 -7.963839e+01
   endloop
 endfacet
 facet normal  0.000000e+00 -1.000000e+00  0.000000e+00
   outer loop
     vertex  4.428205e+01  1.800000e+00 -7.708717e+01
     vertex  4.360583e+01  1.800000e+00 -7.734363e+01
     vertex  4.202187e+01  1.800000e+00 -7.963839e+01
   endloop
 endfacet
 facet normal  0.000000e+00 -1.000000e+00  0.000000e+00
   outer loop
     vertex  4.571795e+01  1.800000e+00 -7.708717e+01
     vertex  4.500000e+01  1.800000e+00 -7.700000e+01
     vertex  4.428205e+01  1.800000e+00 -7.708717e+01
   endloop
 endfacet
 facet normal -0.000000e+00 -1.000000e+00  0.000000e+00
   outer loop
     vertex  4.571795e+01  1.800000e+00 -7.708717e+01
     vertex  4.428205e+01  1.800000e+00 -7.708717e+01
     vertex  4.202187e+01  1.800000e+00 -7.963839e+01
   endloop
 endfacet
 facet normal  0.000000e+00 -1.000000e+00  0.000000e+00
   outer loop
     vertex  4.746895e+01  1.800000e+00 -7.829581e+01
     vertex  4.797813e+01  1.800000e+00 -7.963839e+01
     vertex  4.780505e+01  1.800000e+00 -7.893619e+01
   endloop
 endfacet
 facet normal  0.000000e+00 -1.000000e+00  0.000000e+00
   outer loop
     vertex  4.746895e+01  1.800000e+00 -7.829581e+01
     vertex  4.797813e+01  1.800000e+00 -8.036161e+01
     vertex  4.797813e+01  1.800000e+00 -7.963839e+01
   endloop
 endfacet
 facet normal  0.000000e+00 -1.000000e+00  0.000000e+00
   outer loop
     vertex  4.746895e+01  1.800000e+00 -7.829581e+01
     vertex  4.780505e+01  1.800000e+00 -8.106381e+01
     vertex  4.797813e+01  1.800000e+00 -8.036161e+01
   endloop
 endfacet
 facet normal  0.000000e+00 -1.000000e+00  0.000000e+00
   outer loop
     vertex  4.698937e+01  1.800000e+00 -7.775447e+01
     vertex  4.639417e+01  1.800000e+00 -7.734363e+01
     vertex  4.571795e+01  1.800000e+00 -7.708717e+01
   endloop
 endfacet
 facet normal  0.000000e+00 -1.000000e+00  0.000000e+00
   outer loop
     vertex  4.698937e+01  1.800000e+00 -7.775447e+01
     vertex  4.746895e+01  1.800000e+00 -8.170419e+01
     vertex  4.780505e+01  1.800000e+00 -8.106381e+01
   endloop
 endfacet
 facet normal  0.000000e+00 -1.000000e+00  0.000000e+00
   outer loop
     vertex  4.698937e+01  1.800000e+00 -7.775447e+01
     vertex  4.202187e+01  1.800000e+00 -7.963839e+01
     vertex  4.360583e+01  1.800000e+00 -8.265637e+01
   endloop
 endfacet
 facet normal  0.000000e+00 -1.000000e+00  0.000000e+00
   outer loop
     vertex  4.698937e+01  1.800000e+00 -7.775447e+01
     vertex  4.360583e+01  1.800000e+00 -8.265637e+01
     vertex  4.639417e+01  1.800000e+00 -8.265637e+01
   endloop
 endfacet
 facet normal  0.000000e+00 -1.000000e+00 -0.000000e+00
   outer loop
     vertex  4.698937e+01  1.800000e+00 -7.775447e+01
     vertex  4.639417e+01  1.800000e+00 -8.265637e+01
     vertex  4.746895e+01  1.800000e+00 -8.170419e+01
   endloop
 endfacet
 facet normal -0.000000e+00 -1.000000e+00  0.000000e+00
   outer loop
     vertex  4.698937e+01  1.800000e+00 -7.775447e+01
     vertex  4.571795e+01  1.800000e+00 -7.708717e+01
     vertex  4.202187e+01  1.800000e+00 -7.963839e+01
   endloop
 endfacet
 facet normal  0.000000e+00 -1.000000e+00  0.000000e+00
   outer loop
     vertex  4.698937e+01  1.800000e+00 -7.775447e+01
     vertex  4.780505e+01  1.800000e+00 -8.106381e+01
     vertex  4.746895e+01  1.800000e+00 -7.829581e+01
   endloop
 endfacet
 facet normal  9.845569e-15 -0.000000e+00  1.000000e+00
   outer loop
     vertex  4.644338e+01  1.680000e+01 -8.250000e+01
     vertex  4.644338e+01  1.980000e+01 -8.250000e+01
     vertex  4.355662e+01  1.980000e+01 -8.250000e+01
   endloop
 endfacet
 facet normal  9.845569e-15  0.000000e+00  1.000000e+00
   outer loop
     vertex  4.644338e+01  1.680000e+01 -8.250000e+01
     vertex  4.355662e+01  1.980000e+01 -8.250000e+01
     vertex  4.355662e+01  1.680000e+01 -8.250000e+01
   endloop
 endfacet
 facet normal -8.660254e-01  0.000000e+00  5.000000e-01
   outer loop
     vertex  4.644338e+01  1.680000e+01 -8.250000e+01
     vertex  4.788675e+01  1.980000e+01 -8.000000e+01
     vertex  4.644338e+01  1.980000e+01 -8.250000e+01
   endloop
 endfacet
 facet normal -8.660254e-01  0.000000e+00  5.000000e-01
   outer loop
     vertex  4.644338e+01  1.680000e+01 -8.250000e+01
     vertex  4.788675e+01  1.680000e+01 -8.000000e+01
     vertex  4.788675e+01  1.980000e+01 -8.000000e+01
   endloop
 endfacet
 facet normal -8.660254e-01  0.000000e+00 -5.000000e-01
   outer loop
     vertex  4.788675e+01  1.680000e+01 -8.000000e+01
     vertex  4.644338e+01  1.980000e+01 -7.750000e+01
     vertex  4.788675e+01  1.980000e+01 -8.000000e+01
   endloop
 endfacet
 facet normal -8.660254e-01  0.000000e+00 -5.000000e-01
   outer loop
     vertex  4.788675e+01  1.680000e+01 -8.000000e+01
     vertex  4.644338e+01  1.680000e+01 -7.750000e+01
     vertex  4.644338e+01  1.980000e+01 -7.750000e+01
   endloop
 endfacet
 facet normal -9.845569e-15 -0.000000e+00 -1.000000e+00
   outer loop
     vertex  4.644338e+01  1.980000e+01 -7.750000e+01
     vertex  4.644338e+01  1.680000e+01 -7.750000e+01
     vertex  4.355662e+01  1.680000e+01 -7.750000e+01
   endloop
 endfacet
 facet normal -9.845569e-15  0.000000e+00 -1.000000e+00
   outer loop
     vertex  4.644338e+01  1.980000e+01 -7.750000e+01
     vertex  4.355662e+01  1.680000e+01 -7.750000e+01
     vertex  4.355662e+01  1.980000e+01 -7.750000e+01
   endloop
 endfacet
 facet normal  8.660254e-01  0.000000e+00 -5.000000e-01
   outer loop
     vertex  4.355662e+01  1.680000e+01 -7.750000e+01
     vertex  4.211325e+01  1.980000e+01 -8.000000e+01
     vertex  4.355662e+01  1.980000e+01 -7.750000e+01
   endloop
 endfacet
 facet normal  8.660254e-01  0.000000e+00 -5.000000e-01
   outer loop
     vertex  4.355662e+01  1.680000e+01 -7.750000e+01
     vertex  4.211325e+01  1.680000e+01 -8.000000e+01
     vertex  4.211325e+01  1.980000e+01 -8.000000e+01
   endloop
 endfacet
 facet normal  8.660254e-01 -0.000000e+00  5.000000e-01
   outer loop
     vertex  4.211325e+01  1.680000e+01 -8.000000e+01
     vertex  4.355662e+01  1.980000e+01 -8.250000e+01
     vertex  4.211325e+01  1.980000e+01 -8.000000e+01
   endloop
 endfacet
 facet normal  8.660254e-01  0.000000e+00  5.000000e-01
   outer loop
     vertex  4.211325e+01  1.680000e+01 -8.000000e+01
     vertex  4.355662e+01  1.680000e+01 -8.250000e+01
     vertex  4.355662e+01  1.980000e+01 -8.250000e+01
   endloop
 endfacet
 facet normal  0.000000e+00  1.000000e+00  0.000000e+00
   outer loop
     vertex  4.788675e+01  1.680000e+01 -8.000000e+01
     vertex  4.355662e+01  1.680000e+01 -7.750000e+01
     vertex  4.644338e+01  1.680000e+01 -7.750000e+01
   endloop
 endfacet
 facet normal  0.000000e+00  1.000000e+00  0.000000e+00
   outer loop
     vertex  4.788675e+01  1.680000e+01 -8.000000e+01
     vertex  4.211325e+01  1.680000e+01 -8.000000e+01
     vertex  4.355662e+01  1.680000e+01 -7.750000e+01
   endloop
 endfacet
 facet normal  0.000000e+00  1.000000e+00  0.000000e+00
   outer loop
     vertex  4.644338e+01  1.680000e+01 -8.250000e+01
     vertex  4.355662e+01  1.680000e+01 -8.250000e+01
     vertex  4.211325e+01  1.680000e+01 -8.000000e+01
   endloop
 endfacet
 facet normal  0.000000e+00  1.000000e+00 -0.000000e+00
   outer loop
     vertex  4.644338e+01  1.680000e+01 -8.250000e+01
     vertex  4.211325e+01  1.680000e+01 -8.000000e+01
     vertex  4.788675e+01  1.680000e+01 -8.000000e+01
   endloop
 endfacet
endsolid
