solid 
 facet normal  0.000000e+00  1.205367e-01 -9.927089e-01
   outer loop
     vertex -2.190000e+01  3.321164e+01 -1.076129e+02
     vertex -2.870000e+01  3.380000e+01 -1.075415e+02
     vertex -2.190000e+01  3.380000e+01 -1.075415e+02
   endloop
 endfacet
 facet normal  0.000000e+00  1.205367e-01 -9.927089e-01
   outer loop
     vertex -2.190000e+01  3.321164e+01 -1.076129e+02
     vertex -2.870000e+01  3.321164e+01 -1.076129e+02
     vertex -2.870000e+01  3.380000e+01 -1.075415e+02
   endloop
 endfacet
 facet normal  0.000000e+00  3.546049e-01 -9.350162e-01
   outer loop
     vertex -2.190000e+01  3.265748e+01 -1.078231e+02
     vertex -2.870000e+01  3.265748e+01 -1.078231e+02
     vertex -2.870000e+01  3.321164e+01 -1.076129e+02
   endloop
 endfacet
 facet normal  0.000000e+00  3.546049e-01 -9.350162e-01
   outer loop
     vertex -2.190000e+01  3.265748e+01 -1.078231e+02
     vertex -2.870000e+01  3.321164e+01 -1.076129e+02
     vertex -2.190000e+01  3.321164e+01 -1.076129e+02
   endloop
 endfacet
 facet normal  0.000000e+00  5.680647e-01 -8.229839e-01
   outer loop
     vertex -2.190000e+01  3.216971e+01 -1.081598e+02
     vertex -2.870000e+01  3.216971e+01 -1.081598e+02
     vertex -2.870000e+01  3.265748e+01 -1.078231e+02
   endloop
 endfacet
 facet normal  0.000000e+00  5.680647e-01 -8.229839e-01
   outer loop
     vertex -2.190000e+01  3.216971e+01 -1.081598e+02
     vertex -2.870000e+01  3.265748e+01 -1.078231e+02
     vertex -2.190000e+01  3.265748e+01 -1.078231e+02
   endloop
 endfacet
 facet normal  0.000000e+00  7.485107e-01 -6.631227e-01
   outer loop
     vertex -2.190000e+01  3.177669e+01 -1.086034e+02
     vertex -2.870000e+01  3.177669e+01 -1.086034e+02
     vertex -2.870000e+01  3.216971e+01 -1.081598e+02
   endloop
 endfacet
 facet normal  0.000000e+00  7.485107e-01 -6.631227e-01
   outer loop
     vertex -2.190000e+01  3.177669e+01 -1.086034e+02
     vertex -2.870000e+01  3.216971e+01 -1.081598e+02
     vertex -2.190000e+01  3.216971e+01 -1.081598e+02
   endloop
 endfacet
 facet normal  0.000000e+00  8.854560e-01 -4.647232e-01
   outer loop
     vertex -2.190000e+01  3.150126e+01 -1.091282e+02
     vertex -2.870000e+01  3.150126e+01 -1.091282e+02
     vertex -2.870000e+01  3.177669e+01 -1.086034e+02
   endloop
 endfacet
 facet normal  0.000000e+00  8.854560e-01 -4.647232e-01
   outer loop
     vertex -2.190000e+01  3.150126e+01 -1.091282e+02
     vertex -2.870000e+01  3.177669e+01 -1.086034e+02
     vertex -2.190000e+01  3.177669e+01 -1.086034e+02
   endloop
 endfacet
 facet normal  0.000000e+00  9.709418e-01 -2.393157e-01
   outer loop
     vertex -2.190000e+01  3.135943e+01 -1.097037e+02
     vertex -2.870000e+01  3.135943e+01 -1.097037e+02
     vertex -2.870000e+01  3.150126e+01 -1.091282e+02
   endloop
 endfacet
 facet normal  0.000000e+00  9.709418e-01 -2.393157e-01
   outer loop
     vertex -2.190000e+01  3.135943e+01 -1.097037e+02
     vertex -2.870000e+01  3.150126e+01 -1.091282e+02
     vertex -2.190000e+01  3.150126e+01 -1.091282e+02
   endloop
 endfacet
 facet normal  0.000000e+00  1.000000e+00  0.000000e+00
   outer loop
     vertex -2.190000e+01  3.135943e+01 -1.102963e+02
     vertex -2.870000e+01  3.135943e+01 -1.102963e+02
     vertex -2.870000e+01  3.135943e+01 -1.097037e+02
   endloop
 endfacet
 facet normal  0.000000e+00  1.000000e+00 -0.000000e+00
   outer loop
     vertex -2.190000e+01  3.135943e+01 -1.102963e+02
     vertex -2.870000e+01  3.135943e+01 -1.097037e+02
     vertex -2.190000e+01  3.135943e+01 -1.097037e+02
   endloop
 endfacet
 facet normal  0.000000e+00  9.709418e-01  2.393157e-01
   outer loop
     vertex -2.190000e+01  3.150126e+01 -1.108718e+02
     vertex -2.870000e+01  3.150126e+01 -1.108718e+02
     vertex -2.870000e+01  3.135943e+01 -1.102963e+02
   endloop
 endfacet
 facet normal  0.000000e+00  8.854560e-01  4.647232e-01
   outer loop
     vertex -2.190000e+01  3.150126e+01 -1.108718e+02
     vertex -2.870000e+01  3.177669e+01 -1.113966e+02
     vertex -2.870000e+01  3.150126e+01 -1.108718e+02
   endloop
 endfacet
 facet normal  0.000000e+00  9.709418e-01  2.393157e-01
   outer loop
     vertex -2.190000e+01  3.150126e+01 -1.108718e+02
     vertex -2.870000e+01  3.135943e+01 -1.102963e+02
     vertex -2.190000e+01  3.135943e+01 -1.102963e+02
   endloop
 endfacet
 facet normal  4.626135e-16  8.854560e-01  4.647232e-01
   outer loop
     vertex -2.190000e+01  3.177669e+01 -1.113966e+02
     vertex -2.870000e+01  3.177669e+01 -1.113966e+02
     vertex -2.190000e+01  3.150126e+01 -1.108718e+02
   endloop
 endfacet
 facet normal  0.000000e+00  7.485107e-01  6.631227e-01
   outer loop
     vertex -2.190000e+01  3.216971e+01 -1.118402e+02
     vertex -2.870000e+01  3.216971e+01 -1.118402e+02
     vertex -2.870000e+01  3.177669e+01 -1.113966e+02
   endloop
 endfacet
 facet normal  3.856647e-16  7.485107e-01  6.631227e-01
   outer loop
     vertex -2.190000e+01  3.216971e+01 -1.118402e+02
     vertex -2.870000e+01  3.177669e+01 -1.113966e+02
     vertex -2.190000e+01  3.177669e+01 -1.113966e+02
   endloop
 endfacet
 facet normal  0.000000e+00  5.680647e-01  8.229839e-01
   outer loop
     vertex -2.190000e+01  3.265748e+01 -1.121769e+02
     vertex -2.870000e+01  3.265748e+01 -1.121769e+02
     vertex -2.870000e+01  3.216971e+01 -1.118402e+02
   endloop
 endfacet
 facet normal  0.000000e+00  5.680647e-01  8.229839e-01
   outer loop
     vertex -2.190000e+01  3.265748e+01 -1.121769e+02
     vertex -2.870000e+01  3.216971e+01 -1.118402e+02
     vertex -2.190000e+01  3.216971e+01 -1.118402e+02
   endloop
 endfacet
 facet normal  0.000000e+00  3.546049e-01  9.350162e-01
   outer loop
     vertex -2.190000e+01  3.321164e+01 -1.123871e+02
     vertex -2.870000e+01  3.321164e+01 -1.123871e+02
     vertex -2.870000e+01  3.265748e+01 -1.121769e+02
   endloop
 endfacet
 facet normal  0.000000e+00  3.546049e-01  9.350162e-01
   outer loop
     vertex -2.190000e+01  3.321164e+01 -1.123871e+02
     vertex -2.870000e+01  3.265748e+01 -1.121769e+02
     vertex -2.190000e+01  3.265748e+01 -1.121769e+02
   endloop
 endfacet
 facet normal  0.000000e+00  1.205367e-01  9.927089e-01
   outer loop
     vertex -2.190000e+01  3.380000e+01 -1.124585e+02
     vertex -2.870000e+01  3.380000e+01 -1.124585e+02
     vertex -2.870000e+01  3.321164e+01 -1.123871e+02
   endloop
 endfacet
 facet normal  0.000000e+00  1.205367e-01  9.927089e-01
   outer loop
     vertex -2.190000e+01  3.380000e+01 -1.124585e+02
     vertex -2.870000e+01  3.321164e+01 -1.123871e+02
     vertex -2.190000e+01  3.321164e+01 -1.123871e+02
   endloop
 endfacet
 facet normal  0.000000e+00  0.000000e+00  1.000000e+00
   outer loop
     vertex -2.870000e+01  3.980000e+01 -1.061000e+02
     vertex -2.870000e+01  2.280000e+01 -1.061000e+02
     vertex -2.820000e+01  2.280000e+01 -1.061000e+02
   endloop
 endfacet
 facet normal -0.000000e+00  0.000000e+00  1.000000e+00
   outer loop
     vertex -2.870000e+01  3.980000e+01 -1.061000e+02
     vertex -2.820000e+01  2.280000e+01 -1.061000e+02
     vertex -2.820000e+01  3.980000e+01 -1.061000e+02
   endloop
 endfacet
 facet normal -1.000000e+00  0.000000e+00 -0.000000e+00
   outer loop
     vertex -2.870000e+01  3.582331e+01 -1.113966e+02
     vertex -2.870000e+01  3.980000e+01 -1.139000e+02
     vertex -2.870000e+01  3.543029e+01 -1.118402e+02
   endloop
 endfacet
 facet normal -1.000000e+00  0.000000e+00  0.000000e+00
   outer loop
     vertex -2.870000e+01  3.494252e+01 -1.121769e+02
     vertex -2.870000e+01  3.543029e+01 -1.118402e+02
     vertex -2.870000e+01  3.980000e+01 -1.139000e+02
   endloop
 endfacet
 facet normal -1.000000e+00  0.000000e+00 -0.000000e+00
   outer loop
     vertex -2.870000e+01  3.609874e+01 -1.108718e+02
     vertex -2.870000e+01  3.980000e+01 -1.139000e+02
     vertex -2.870000e+01  3.582331e+01 -1.113966e+02
   endloop
 endfacet
 facet normal -1.000000e+00  0.000000e+00  0.000000e+00
   outer loop
     vertex -2.870000e+01  3.438836e+01 -1.123871e+02
     vertex -2.870000e+01  3.494252e+01 -1.121769e+02
     vertex -2.870000e+01  3.980000e+01 -1.139000e+02
   endloop
 endfacet
 facet normal -1.000000e+00  0.000000e+00 -0.000000e+00
   outer loop
     vertex -2.870000e+01  3.624057e+01 -1.102963e+02
     vertex -2.870000e+01  3.980000e+01 -1.139000e+02
     vertex -2.870000e+01  3.609874e+01 -1.108718e+02
   endloop
 endfacet
 facet normal -1.000000e+00  0.000000e+00  0.000000e+00
   outer loop
     vertex -2.870000e+01  3.380000e+01 -1.124585e+02
     vertex -2.870000e+01  3.438836e+01 -1.123871e+02
     vertex -2.870000e+01  3.980000e+01 -1.139000e+02
   endloop
 endfacet
 facet normal -1.000000e+00  0.000000e+00  0.000000e+00
   outer loop
     vertex -2.870000e+01  3.624057e+01 -1.097037e+02
     vertex -2.870000e+01  3.980000e+01 -1.139000e+02
     vertex -2.870000e+01  3.624057e+01 -1.102963e+02
   endloop
 endfacet
 facet normal -1.000000e+00  0.000000e+00 -0.000000e+00
   outer loop
     vertex -2.870000e+01  3.980000e+01 -1.061000e+02
     vertex -2.870000e+01  3.980000e+01 -1.139000e+02
     vertex -2.870000e+01  3.624057e+01 -1.097037e+02
   endloop
 endfacet
 facet normal -1.000000e+00  0.000000e+00  0.000000e+00
   outer loop
     vertex -2.870000e+01  3.609874e+01 -1.091282e+02
     vertex -2.870000e+01  3.980000e+01 -1.061000e+02
     vertex -2.870000e+01  3.624057e+01 -1.097037e+02
   endloop
 endfacet
 facet normal -1.000000e+00  0.000000e+00  0.000000e+00
   outer loop
     vertex -2.870000e+01  3.582331e+01 -1.086034e+02
     vertex -2.870000e+01  3.980000e+01 -1.061000e+02
     vertex -2.870000e+01  3.609874e+01 -1.091282e+02
   endloop
 endfacet
 facet normal -1.000000e+00  0.000000e+00  0.000000e+00
   outer loop
     vertex -2.870000e+01  3.543029e+01 -1.081598e+02
     vertex -2.870000e+01  3.980000e+01 -1.061000e+02
     vertex -2.870000e+01  3.582331e+01 -1.086034e+02
   endloop
 endfacet
 facet normal -1.000000e+00  0.000000e+00  0.000000e+00
   outer loop
     vertex -2.870000e+01  3.494252e+01 -1.078231e+02
     vertex -2.870000e+01  3.980000e+01 -1.061000e+02
     vertex -2.870000e+01  3.543029e+01 -1.081598e+02
   endloop
 endfacet
 facet normal -1.000000e+00  0.000000e+00  0.000000e+00
   outer loop
     vertex -2.870000e+01  3.438836e+01 -1.076129e+02
     vertex -2.870000e+01  3.980000e+01 -1.061000e+02
     vertex -2.870000e+01  3.494252e+01 -1.078231e+02
   endloop
 endfacet
 facet normal -1.000000e+00  0.000000e+00  0.000000e+00
   outer loop
     vertex -2.870000e+01  3.380000e+01 -1.075415e+02
     vertex -2.870000e+01  3.980000e+01 -1.061000e+02
     vertex -2.870000e+01  3.438836e+01 -1.076129e+02
   endloop
 endfacet
 facet normal -1.000000e+00  0.000000e+00  0.000000e+00
   outer loop
     vertex -2.870000e+01  2.280000e+01 -1.139000e+02
     vertex -2.870000e+01  3.135943e+01 -1.102963e+02
     vertex -2.870000e+01  3.150126e+01 -1.108718e+02
   endloop
 endfacet
 facet normal -1.000000e+00  0.000000e+00  0.000000e+00
   outer loop
     vertex -2.870000e+01  2.280000e+01 -1.139000e+02
     vertex -2.870000e+01  3.150126e+01 -1.108718e+02
     vertex -2.870000e+01  3.177669e+01 -1.113966e+02
   endloop
 endfacet
 facet normal -1.000000e+00  0.000000e+00  0.000000e+00
   outer loop
     vertex -2.870000e+01  2.280000e+01 -1.139000e+02
     vertex -2.870000e+01  3.177669e+01 -1.113966e+02
     vertex -2.870000e+01  3.216971e+01 -1.118402e+02
   endloop
 endfacet
 facet normal -1.000000e+00  0.000000e+00  0.000000e+00
   outer loop
     vertex -2.870000e+01  2.280000e+01 -1.139000e+02
     vertex -2.870000e+01  3.216971e+01 -1.118402e+02
     vertex -2.870000e+01  3.265748e+01 -1.121769e+02
   endloop
 endfacet
 facet normal -1.000000e+00  0.000000e+00  0.000000e+00
   outer loop
     vertex -2.870000e+01  2.280000e+01 -1.139000e+02
     vertex -2.870000e+01  3.265748e+01 -1.121769e+02
     vertex -2.870000e+01  3.321164e+01 -1.123871e+02
   endloop
 endfacet
 facet normal -1.000000e+00  0.000000e+00  0.000000e+00
   outer loop
     vertex -2.870000e+01  2.280000e+01 -1.139000e+02
     vertex -2.870000e+01  3.321164e+01 -1.123871e+02
     vertex -2.870000e+01  3.380000e+01 -1.124585e+02
   endloop
 endfacet
 facet normal -1.000000e+00  0.000000e+00  0.000000e+00
   outer loop
     vertex -2.870000e+01  2.280000e+01 -1.139000e+02
     vertex -2.870000e+01  3.380000e+01 -1.124585e+02
     vertex -2.870000e+01  3.980000e+01 -1.139000e+02
   endloop
 endfacet
 facet normal -1.000000e+00  0.000000e+00  0.000000e+00
   outer loop
     vertex -2.870000e+01  2.280000e+01 -1.061000e+02
     vertex -2.870000e+01  3.265748e+01 -1.078231e+02
     vertex -2.870000e+01  3.216971e+01 -1.081598e+02
   endloop
 endfacet
 facet normal -1.000000e+00  0.000000e+00  0.000000e+00
   outer loop
     vertex -2.870000e+01  2.280000e+01 -1.061000e+02
     vertex -2.870000e+01  3.216971e+01 -1.081598e+02
     vertex -2.870000e+01  3.177669e+01 -1.086034e+02
   endloop
 endfacet
 facet normal -1.000000e+00  0.000000e+00  0.000000e+00
   outer loop
     vertex -2.870000e+01  2.280000e+01 -1.061000e+02
     vertex -2.870000e+01  3.177669e+01 -1.086034e+02
     vertex -2.870000e+01  3.150126e+01 -1.091282e+02
   endloop
 endfacet
 facet normal -1.000000e+00  0.000000e+00  0.000000e+00
   outer loop
     vertex -2.870000e+01  2.280000e+01 -1.061000e+02
     vertex -2.870000e+01  3.150126e+01 -1.091282e+02
     vertex -2.870000e+01  3.135943e+01 -1.097037e+02
   endloop
 endfacet
 facet normal -1.000000e+00  0.000000e+00  0.000000e+00
   outer loop
     vertex -2.870000e+01  2.280000e+01 -1.061000e+02
     vertex -2.870000e+01  3.135943e+01 -1.097037e+02
     vertex -2.870000e+01  3.135943e+01 -1.102963e+02
   endloop
 endfacet
 facet normal -1.000000e+00  0.000000e+00  0.000000e+00
   outer loop
     vertex -2.870000e+01  2.280000e+01 -1.061000e+02
     vertex -2.870000e+01  3.135943e+01 -1.102963e+02
     vertex -2.870000e+01  2.280000e+01 -1.139000e+02
   endloop
 endfacet
 facet normal -1.000000e+00  0.000000e+00  0.000000e+00
   outer loop
     vertex -2.870000e+01  2.280000e+01 -1.061000e+02
     vertex -2.870000e+01  3.980000e+01 -1.061000e+02
     vertex -2.870000e+01  3.380000e+01 -1.075415e+02
   endloop
 endfacet
 facet normal -1.000000e+00  0.000000e+00  0.000000e+00
   outer loop
     vertex -2.870000e+01  2.280000e+01 -1.061000e+02
     vertex -2.870000e+01  3.380000e+01 -1.075415e+02
     vertex -2.870000e+01  3.321164e+01 -1.076129e+02
   endloop
 endfacet
 facet normal -1.000000e+00  0.000000e+00  0.000000e+00
   outer loop
     vertex -2.870000e+01  2.280000e+01 -1.061000e+02
     vertex -2.870000e+01  3.321164e+01 -1.076129e+02
     vertex -2.870000e+01  3.265748e+01 -1.078231e+02
   endloop
 endfacet
 facet normal  0.000000e+00  0.000000e+00 -1.000000e+00
   outer loop
     vertex -2.870000e+01  2.280000e+01 -1.139000e+02
     vertex -2.870000e+01  3.980000e+01 -1.139000e+02
     vertex -2.820000e+01  3.980000e+01 -1.139000e+02
   endloop
 endfacet
 facet normal  0.000000e+00  0.000000e+00 -1.000000e+00
   outer loop
     vertex -2.870000e+01  2.280000e+01 -1.139000e+02
     vertex -2.820000e+01  3.980000e+01 -1.139000e+02
     vertex -2.820000e+01  2.280000e+01 -1.139000e+02
   endloop
 endfacet
 facet normal -1.000000e+00  0.000000e+00  0.000000e+00
   outer loop
     vertex -2.820000e+01  2.280000e+01 -1.139000e+02
     vertex -2.820000e+01  3.980000e+01 -1.139000e+02
     vertex -2.820000e+01  3.980000e+01 -1.157500e+02
   endloop
 endfacet
 facet normal -1.000000e+00  0.000000e+00  0.000000e+00
   outer loop
     vertex -2.820000e+01  2.280000e+01 -1.139000e+02
     vertex -2.820000e+01  3.980000e+01 -1.157500e+02
     vertex -2.820000e+01  2.280000e+01 -1.157500e+02
   endloop
 endfacet
 facet normal  2.817540e-01  0.000000e+00 -9.594867e-01
   outer loop
     vertex -2.820000e+01  3.980000e+01 -1.157500e+02
     vertex -2.190000e+01  2.280000e+01 -1.139000e+02
     vertex -2.820000e+01  2.280000e+01 -1.157500e+02
   endloop
 endfacet
 facet normal  2.817540e-01  0.000000e+00 -9.594867e-01
   outer loop
     vertex -2.820000e+01  3.980000e+01 -1.157500e+02
     vertex -2.190000e+01  3.980000e+01 -1.139000e+02
     vertex -2.190000e+01  2.280000e+01 -1.139000e+02
   endloop
 endfacet
 facet normal  1.000000e+00  0.000000e+00 -0.000000e+00
   outer loop
     vertex -2.190000e+01  3.177669e+01 -1.086034e+02
     vertex -2.190000e+01  3.216971e+01 -1.081598e+02
     vertex -2.190000e+01  2.280000e+01 -1.061000e+02
   endloop
 endfacet
 facet normal  1.000000e+00  0.000000e+00  0.000000e+00
   outer loop
     vertex -2.190000e+01  3.265748e+01 -1.078231e+02
     vertex -2.190000e+01  2.280000e+01 -1.061000e+02
     vertex -2.190000e+01  3.216971e+01 -1.081598e+02
   endloop
 endfacet
 facet normal  1.000000e+00  0.000000e+00 -0.000000e+00
   outer loop
     vertex -2.190000e+01  3.150126e+01 -1.091282e+02
     vertex -2.190000e+01  3.177669e+01 -1.086034e+02
     vertex -2.190000e+01  2.280000e+01 -1.061000e+02
   endloop
 endfacet
 facet normal  1.000000e+00  0.000000e+00  0.000000e+00
   outer loop
     vertex -2.190000e+01  3.321164e+01 -1.076129e+02
     vertex -2.190000e+01  2.280000e+01 -1.061000e+02
     vertex -2.190000e+01  3.265748e+01 -1.078231e+02
   endloop
 endfacet
 facet normal  1.000000e+00  0.000000e+00 -0.000000e+00
   outer loop
     vertex -2.190000e+01  3.135943e+01 -1.097037e+02
     vertex -2.190000e+01  3.150126e+01 -1.091282e+02
     vertex -2.190000e+01  2.280000e+01 -1.061000e+02
   endloop
 endfacet
 facet normal  1.000000e+00  0.000000e+00  0.000000e+00
   outer loop
     vertex -2.190000e+01  3.135943e+01 -1.102963e+02
     vertex -2.190000e+01  2.280000e+01 -1.061000e+02
     vertex -2.190000e+01  2.280000e+01 -1.139000e+02
   endloop
 endfacet
 facet normal  1.000000e+00  0.000000e+00 -0.000000e+00
   outer loop
     vertex -2.190000e+01  3.135943e+01 -1.102963e+02
     vertex -2.190000e+01  3.135943e+01 -1.097037e+02
     vertex -2.190000e+01  2.280000e+01 -1.061000e+02
   endloop
 endfacet
 facet normal  1.000000e+00  0.000000e+00  0.000000e+00
   outer loop
     vertex -2.190000e+01  3.150126e+01 -1.108718e+02
     vertex -2.190000e+01  3.135943e+01 -1.102963e+02
     vertex -2.190000e+01  2.280000e+01 -1.139000e+02
   endloop
 endfacet
 facet normal  1.000000e+00  0.000000e+00  0.000000e+00
   outer loop
     vertex -2.190000e+01  3.177669e+01 -1.113966e+02
     vertex -2.190000e+01  3.150126e+01 -1.108718e+02
     vertex -2.190000e+01  2.280000e+01 -1.139000e+02
   endloop
 endfacet
 facet normal  1.000000e+00  0.000000e+00  0.000000e+00
   outer loop
     vertex -2.190000e+01  3.216971e+01 -1.118402e+02
     vertex -2.190000e+01  3.177669e+01 -1.113966e+02
     vertex -2.190000e+01  2.280000e+01 -1.139000e+02
   endloop
 endfacet
 facet normal  1.000000e+00  0.000000e+00  0.000000e+00
   outer loop
     vertex -2.190000e+01  3.265748e+01 -1.121769e+02
     vertex -2.190000e+01  3.216971e+01 -1.118402e+02
     vertex -2.190000e+01  2.280000e+01 -1.139000e+02
   endloop
 endfacet
 facet normal  1.000000e+00  0.000000e+00  0.000000e+00
   outer loop
     vertex -2.190000e+01  3.321164e+01 -1.123871e+02
     vertex -2.190000e+01  3.265748e+01 -1.121769e+02
     vertex -2.190000e+01  2.280000e+01 -1.139000e+02
   endloop
 endfacet
 facet normal  1.000000e+00  0.000000e+00  0.000000e+00
   outer loop
     vertex -2.190000e+01  3.980000e+01 -1.061000e+02
     vertex -2.190000e+01  3.582331e+01 -1.086034e+02
     vertex -2.190000e+01  3.609874e+01 -1.091282e+02
   endloop
 endfacet
 facet normal  1.000000e+00  0.000000e+00  0.000000e+00
   outer loop
     vertex -2.190000e+01  3.980000e+01 -1.061000e+02
     vertex -2.190000e+01  3.543029e+01 -1.081598e+02
     vertex -2.190000e+01  3.582331e+01 -1.086034e+02
   endloop
 endfacet
 facet normal  1.000000e+00  0.000000e+00  0.000000e+00
   outer loop
     vertex -2.190000e+01  3.980000e+01 -1.061000e+02
     vertex -2.190000e+01  3.494252e+01 -1.078231e+02
     vertex -2.190000e+01  3.543029e+01 -1.081598e+02
   endloop
 endfacet
 facet normal  1.000000e+00  0.000000e+00  0.000000e+00
   outer loop
     vertex -2.190000e+01  3.980000e+01 -1.061000e+02
     vertex -2.190000e+01  3.438836e+01 -1.076129e+02
     vertex -2.190000e+01  3.494252e+01 -1.078231e+02
   endloop
 endfacet
 facet normal  1.000000e+00  0.000000e+00  0.000000e+00
   outer loop
     vertex -2.190000e+01  3.980000e+01 -1.061000e+02
     vertex -2.190000e+01  3.380000e+01 -1.075415e+02
     vertex -2.190000e+01  3.438836e+01 -1.076129e+02
   endloop
 endfacet
 facet normal  1.000000e+00  0.000000e+00 -0.000000e+00
   outer loop
     vertex -2.190000e+01  3.624057e+01 -1.097037e+02
     vertex -2.190000e+01  3.980000e+01 -1.061000e+02
     vertex -2.190000e+01  3.609874e+01 -1.091282e+02
   endloop
 endfacet
 facet normal  1.000000e+00  0.000000e+00  0.000000e+00
   outer loop
     vertex -2.190000e+01  3.980000e+01 -1.139000e+02
     vertex -2.190000e+01  3.438836e+01 -1.123871e+02
     vertex -2.190000e+01  3.380000e+01 -1.124585e+02
   endloop
 endfacet
 facet normal  1.000000e+00  0.000000e+00  0.000000e+00
   outer loop
     vertex -2.190000e+01  3.980000e+01 -1.139000e+02
     vertex -2.190000e+01  3.494252e+01 -1.121769e+02
     vertex -2.190000e+01  3.438836e+01 -1.123871e+02
   endloop
 endfacet
 facet normal  1.000000e+00  0.000000e+00  0.000000e+00
   outer loop
     vertex -2.190000e+01  3.980000e+01 -1.139000e+02
     vertex -2.190000e+01  3.543029e+01 -1.118402e+02
     vertex -2.190000e+01  3.494252e+01 -1.121769e+02
   endloop
 endfacet
 facet normal  1.000000e+00  0.000000e+00  0.000000e+00
   outer loop
     vertex -2.190000e+01  3.980000e+01 -1.139000e+02
     vertex -2.190000e+01  3.582331e+01 -1.113966e+02
     vertex -2.190000e+01  3.543029e+01 -1.118402e+02
   endloop
 endfacet
 facet normal  1.000000e+00  0.000000e+00  0.000000e+00
   outer loop
     vertex -2.190000e+01  3.980000e+01 -1.139000e+02
     vertex -2.190000e+01  3.609874e+01 -1.108718e+02
     vertex -2.190000e+01  3.582331e+01 -1.113966e+02
   endloop
 endfacet
 facet normal  1.000000e+00  0.000000e+00  0.000000e+00
   outer loop
     vertex -2.190000e+01  3.980000e+01 -1.139000e+02
     vertex -2.190000e+01  3.624057e+01 -1.102963e+02
     vertex -2.190000e+01  3.609874e+01 -1.108718e+02
   endloop
 endfacet
 facet normal  1.000000e+00  0.000000e+00  0.000000e+00
   outer loop
     vertex -2.190000e+01  3.980000e+01 -1.139000e+02
     vertex -2.190000e+01  3.624057e+01 -1.097037e+02
     vertex -2.190000e+01  3.624057e+01 -1.102963e+02
   endloop
 endfacet
 facet normal  1.000000e+00  0.000000e+00 -0.000000e+00
   outer loop
     vertex -2.190000e+01  3.980000e+01 -1.139000e+02
     vertex -2.190000e+01  3.980000e+01 -1.061000e+02
     vertex -2.190000e+01  3.624057e+01 -1.097037e+02
   endloop
 endfacet
 facet normal  1.000000e+00  0.000000e+00  0.000000e+00
   outer loop
     vertex -2.190000e+01  2.280000e+01 -1.139000e+02
     vertex -2.190000e+01  3.980000e+01 -1.139000e+02
     vertex -2.190000e+01  3.380000e+01 -1.124585e+02
   endloop
 endfacet
 facet normal  1.000000e+00  0.000000e+00  0.000000e+00
   outer loop
     vertex -2.190000e+01  2.280000e+01 -1.139000e+02
     vertex -2.190000e+01  3.380000e+01 -1.124585e+02
     vertex -2.190000e+01  3.321164e+01 -1.123871e+02
   endloop
 endfacet
 facet normal  1.000000e+00  0.000000e+00  0.000000e+00
   outer loop
     vertex -2.190000e+01  3.980000e+01 -1.061000e+02
     vertex -2.190000e+01  2.280000e+01 -1.061000e+02
     vertex -2.190000e+01  3.380000e+01 -1.075415e+02
   endloop
 endfacet
 facet normal  1.000000e+00  0.000000e+00  0.000000e+00
   outer loop
     vertex -2.190000e+01  3.380000e+01 -1.075415e+02
     vertex -2.190000e+01  2.280000e+01 -1.061000e+02
     vertex -2.190000e+01  3.321164e+01 -1.076129e+02
   endloop
 endfacet
 facet normal  2.817540e-01  0.000000e+00  9.594867e-01
   outer loop
     vertex -2.190000e+01  3.980000e+01 -1.061000e+02
     vertex -2.820000e+01  2.280000e+01 -1.042500e+02
     vertex -2.190000e+01  2.280000e+01 -1.061000e+02
   endloop
 endfacet
 facet normal  2.817540e-01  0.000000e+00  9.594867e-01
   outer loop
     vertex -2.190000e+01  3.980000e+01 -1.061000e+02
     vertex -2.820000e+01  3.980000e+01 -1.042500e+02
     vertex -2.820000e+01  2.280000e+01 -1.042500e+02
   endloop
 endfacet
 facet normal -1.000000e+00  0.000000e+00  0.000000e+00
   outer loop
     vertex -2.820000e+01  2.280000e+01 -1.042500e+02
     vertex -2.820000e+01  3.980000e+01 -1.042500e+02
     vertex -2.820000e+01  3.980000e+01 -1.061000e+02
   endloop
 endfacet
 facet normal -1.000000e+00  0.000000e+00  0.000000e+00
   outer loop
     vertex -2.820000e+01  2.280000e+01 -1.042500e+02
     vertex -2.820000e+01  3.980000e+01 -1.061000e+02
     vertex -2.820000e+01  2.280000e+01 -1.061000e+02
   endloop
 endfacet
 facet normal  0.000000e+00  1.000000e+00  0.000000e+00
   outer loop
     vertex -2.190000e+01  3.980000e+01 -1.139000e+02
     vertex -2.820000e+01  3.980000e+01 -1.157500e+02
     vertex -2.820000e+01  3.980000e+01 -1.139000e+02
   endloop
 endfacet
 facet normal  0.000000e+00  1.000000e+00  0.000000e+00
   outer loop
     vertex -2.820000e+01  3.980000e+01 -1.061000e+02
     vertex -2.870000e+01  3.980000e+01 -1.139000e+02
     vertex -2.870000e+01  3.980000e+01 -1.061000e+02
   endloop
 endfacet
 facet normal  0.000000e+00  1.000000e+00  0.000000e+00
   outer loop
     vertex -2.820000e+01  3.980000e+01 -1.061000e+02
     vertex -2.820000e+01  3.980000e+01 -1.139000e+02
     vertex -2.870000e+01  3.980000e+01 -1.139000e+02
   endloop
 endfacet
 facet normal  0.000000e+00  1.000000e+00  0.000000e+00
   outer loop
     vertex -2.190000e+01  3.980000e+01 -1.061000e+02
     vertex -2.820000e+01  3.980000e+01 -1.061000e+02
     vertex -2.820000e+01  3.980000e+01 -1.042500e+02
   endloop
 endfacet
 facet normal  0.000000e+00  1.000000e+00  0.000000e+00
   outer loop
     vertex -2.190000e+01  3.980000e+01 -1.061000e+02
     vertex -2.820000e+01  3.980000e+01 -1.139000e+02
     vertex -2.820000e+01  3.980000e+01 -1.061000e+02
   endloop
 endfacet
 facet normal  0.000000e+00  1.000000e+00  0.000000e+00
   outer loop
     vertex -2.190000e+01  3.980000e+01 -1.061000e+02
     vertex -2.190000e+01  3.980000e+01 -1.139000e+02
     vertex -2.820000e+01  3.980000e+01 -1.139000e+02
   endloop
 endfacet
 facet normal  0.000000e+00 -1.000000e+00  0.000000e+00
   outer loop
     vertex -2.820000e+01  2.280000e+01 -1.139000e+02
     vertex -2.820000e+01  2.280000e+01 -1.157500e+02
     vertex -2.190000e+01  2.280000e+01 -1.139000e+02
   endloop
 endfacet
 facet normal  0.000000e+00 -1.000000e+00 -0.000000e+00
   outer loop
     vertex -2.190000e+01  2.280000e+01 -1.061000e+02
     vertex -2.820000e+01  2.280000e+01 -1.139000e+02
     vertex -2.190000e+01  2.280000e+01 -1.139000e+02
   endloop
 endfacet
 facet normal  0.000000e+00 -1.000000e+00  0.000000e+00
   outer loop
     vertex -2.820000e+01  2.280000e+01 -1.061000e+02
     vertex -2.820000e+01  2.280000e+01 -1.139000e+02
     vertex -2.190000e+01  2.280000e+01 -1.061000e+02
   endloop
 endfacet
 facet normal  0.000000e+00 -1.000000e+00  0.000000e+00
   outer loop
     vertex -2.870000e+01  2.280000e+01 -1.061000e+02
     vertex -2.870000e+01  2.280000e+01 -1.139000e+02
     vertex -2.820000e+01  2.280000e+01 -1.139000e+02
   endloop
 endfacet
 facet normal  0.000000e+00 -1.000000e+00  0.000000e+00
   outer loop
     vertex -2.870000e+01  2.280000e+01 -1.061000e+02
     vertex -2.820000e+01  2.280000e+01 -1.139000e+02
     vertex -2.820000e+01  2.280000e+01 -1.061000e+02
   endloop
 endfacet
 facet normal  0.000000e+00 -1.000000e+00  0.000000e+00
   outer loop
     vertex -2.820000e+01  2.280000e+01 -1.042500e+02
     vertex -2.820000e+01  2.280000e+01 -1.061000e+02
     vertex -2.190000e+01  2.280000e+01 -1.061000e+02
   endloop
 endfacet
 facet normal  0.000000e+00 -1.205367e-01  9.927089e-01
   outer loop
     vertex -2.190000e+01  3.438836e+01 -1.123871e+02
     vertex -2.870000e+01  3.380000e+01 -1.124585e+02
     vertex -2.190000e+01  3.380000e+01 -1.124585e+02
   endloop
 endfacet
 facet normal  0.000000e+00 -1.205367e-01  9.927089e-01
   outer loop
     vertex -2.190000e+01  3.438836e+01 -1.123871e+02
     vertex -2.870000e+01  3.438836e+01 -1.123871e+02
     vertex -2.870000e+01  3.380000e+01 -1.124585e+02
   endloop
 endfacet
 facet normal  0.000000e+00 -3.546049e-01  9.350162e-01
   outer loop
     vertex -2.190000e+01  3.494252e+01 -1.121769e+02
     vertex -2.870000e+01  3.494252e+01 -1.121769e+02
     vertex -2.870000e+01  3.438836e+01 -1.123871e+02
   endloop
 endfacet
 facet normal  0.000000e+00 -5.680647e-01  8.229839e-01
   outer loop
     vertex -2.190000e+01  3.494252e+01 -1.121769e+02
     vertex -2.870000e+01  3.543029e+01 -1.118402e+02
     vertex -2.870000e+01  3.494252e+01 -1.121769e+02
   endloop
 endfacet
 facet normal  0.000000e+00 -3.546049e-01  9.350162e-01
   outer loop
     vertex -2.190000e+01  3.494252e+01 -1.121769e+02
     vertex -2.870000e+01  3.438836e+01 -1.123871e+02
     vertex -2.190000e+01  3.438836e+01 -1.123871e+02
   endloop
 endfacet
 facet normal  1.385815e-15 -7.485107e-01  6.631227e-01
   outer loop
     vertex -2.190000e+01  3.543029e+01 -1.118402e+02
     vertex -2.870000e+01  3.582331e+01 -1.113966e+02
     vertex -2.870000e+01  3.543029e+01 -1.118402e+02
   endloop
 endfacet
 facet normal  1.719898e-15 -5.680647e-01  8.229839e-01
   outer loop
     vertex -2.190000e+01  3.543029e+01 -1.118402e+02
     vertex -2.870000e+01  3.543029e+01 -1.118402e+02
     vertex -2.190000e+01  3.494252e+01 -1.121769e+02
   endloop
 endfacet
 facet normal  0.000000e+00 -7.485107e-01  6.631227e-01
   outer loop
     vertex -2.190000e+01  3.582331e+01 -1.113966e+02
     vertex -2.870000e+01  3.582331e+01 -1.113966e+02
     vertex -2.190000e+01  3.543029e+01 -1.118402e+02
   endloop
 endfacet
 facet normal  0.000000e+00 -8.854560e-01  4.647232e-01
   outer loop
     vertex -2.190000e+01  3.609874e+01 -1.108718e+02
     vertex -2.870000e+01  3.609874e+01 -1.108718e+02
     vertex -2.870000e+01  3.582331e+01 -1.113966e+02
   endloop
 endfacet
 facet normal  0.000000e+00 -8.854560e-01  4.647232e-01
   outer loop
     vertex -2.190000e+01  3.609874e+01 -1.108718e+02
     vertex -2.870000e+01  3.582331e+01 -1.113966e+02
     vertex -2.190000e+01  3.582331e+01 -1.113966e+02
   endloop
 endfacet
 facet normal -5.001294e-16 -9.709418e-01  2.393157e-01
   outer loop
     vertex -2.190000e+01  3.624057e+01 -1.102963e+02
     vertex -2.870000e+01  3.624057e+01 -1.102963e+02
     vertex -2.870000e+01  3.609874e+01 -1.108718e+02
   endloop
 endfacet
 facet normal -0.000000e+00 -1.000000e+00  0.000000e+00
   outer loop
     vertex -2.190000e+01  3.624057e+01 -1.102963e+02
     vertex -2.870000e+01  3.624057e+01 -1.097037e+02
     vertex -2.870000e+01  3.624057e+01 -1.102963e+02
   endloop
 endfacet
 facet normal  0.000000e+00 -9.709418e-01  2.393157e-01
   outer loop
     vertex -2.190000e+01  3.624057e+01 -1.102963e+02
     vertex -2.870000e+01  3.609874e+01 -1.108718e+02
     vertex -2.190000e+01  3.609874e+01 -1.108718e+02
   endloop
 endfacet
 facet normal -0.000000e+00 -9.709418e-01 -2.393157e-01
   outer loop
     vertex -2.190000e+01  3.624057e+01 -1.097037e+02
     vertex -2.870000e+01  3.609874e+01 -1.091282e+02
     vertex -2.870000e+01  3.624057e+01 -1.097037e+02
   endloop
 endfacet
 facet normal -0.000000e+00 -1.000000e+00 -0.000000e+00
   outer loop
     vertex -2.190000e+01  3.624057e+01 -1.097037e+02
     vertex -2.870000e+01  3.624057e+01 -1.097037e+02
     vertex -2.190000e+01  3.624057e+01 -1.102963e+02
   endloop
 endfacet
 facet normal  9.711932e-16 -8.854560e-01 -4.647232e-01
   outer loop
     vertex -2.190000e+01  3.609874e+01 -1.091282e+02
     vertex -2.870000e+01  3.582331e+01 -1.086034e+02
     vertex -2.870000e+01  3.609874e+01 -1.091282e+02
   endloop
 endfacet
 facet normal  5.001294e-16 -9.709418e-01 -2.393157e-01
   outer loop
     vertex -2.190000e+01  3.609874e+01 -1.091282e+02
     vertex -2.870000e+01  3.609874e+01 -1.091282e+02
     vertex -2.190000e+01  3.624057e+01 -1.097037e+02
   endloop
 endfacet
 facet normal -9.252270e-16 -8.854560e-01 -4.647232e-01
   outer loop
     vertex -2.190000e+01  3.582331e+01 -1.086034e+02
     vertex -2.870000e+01  3.582331e+01 -1.086034e+02
     vertex -2.190000e+01  3.609874e+01 -1.091282e+02
   endloop
 endfacet
 facet normal -0.000000e+00 -7.485107e-01 -6.631227e-01
   outer loop
     vertex -2.190000e+01  3.543029e+01 -1.081598e+02
     vertex -2.870000e+01  3.543029e+01 -1.081598e+02
     vertex -2.870000e+01  3.582331e+01 -1.086034e+02
   endloop
 endfacet
 facet normal -0.000000e+00 -5.680647e-01 -8.229839e-01
   outer loop
     vertex -2.190000e+01  3.543029e+01 -1.081598e+02
     vertex -2.870000e+01  3.494252e+01 -1.078231e+02
     vertex -2.870000e+01  3.543029e+01 -1.081598e+02
   endloop
 endfacet
 facet normal -7.782163e-16 -7.485107e-01 -6.631227e-01
   outer loop
     vertex -2.190000e+01  3.543029e+01 -1.081598e+02
     vertex -2.870000e+01  3.582331e+01 -1.086034e+02
     vertex -2.190000e+01  3.582331e+01 -1.086034e+02
   endloop
 endfacet
 facet normal -0.000000e+00 -5.680647e-01 -8.229839e-01
   outer loop
     vertex -2.190000e+01  3.494252e+01 -1.078231e+02
     vertex -2.870000e+01  3.494252e+01 -1.078231e+02
     vertex -2.190000e+01  3.543029e+01 -1.081598e+02
   endloop
 endfacet
 facet normal -0.000000e+00 -3.546049e-01 -9.350162e-01
   outer loop
     vertex -2.190000e+01  3.438836e+01 -1.076129e+02
     vertex -2.870000e+01  3.438836e+01 -1.076129e+02
     vertex -2.870000e+01  3.494252e+01 -1.078231e+02
   endloop
 endfacet
 facet normal -0.000000e+00 -1.205367e-01 -9.927089e-01
   outer loop
     vertex -2.190000e+01  3.438836e+01 -1.076129e+02
     vertex -2.870000e+01  3.380000e+01 -1.075415e+02
     vertex -2.870000e+01  3.438836e+01 -1.076129e+02
   endloop
 endfacet
 facet normal  0.000000e+00 -3.546049e-01 -9.350162e-01
   outer loop
     vertex -2.190000e+01  3.438836e+01 -1.076129e+02
     vertex -2.870000e+01  3.494252e+01 -1.078231e+02
     vertex -2.190000e+01  3.494252e+01 -1.078231e+02
   endloop
 endfacet
 facet normal -0.000000e+00 -1.205367e-01 -9.927089e-01
   outer loop
     vertex -2.190000e+01  3.380000e+01 -1.075415e+02
     vertex -2.870000e+01  3.380000e+01 -1.075415e+02
     vertex -2.190000e+01  3.438836e+01 -1.076129e+02
   endloop
 endfacet
endsolid
